<svg width="183" height="134" viewBox="0 0 183 134" fill="none" xmlns="http://www.w3.org/2000/svg">
<path fill-rule="evenodd" clip-rule="evenodd" d="M0 17.5C0 13.3579 3.35786 10 7.5 10H25.5C29.6421 10 33 13.3579 33 17.5C33 21.6421 29.6421 25 25.5 25H7.5C3.35786 25 0 21.6421 0 17.5ZM58.2617 31.6461C58.2617 27.4233 61.685 24 65.9078 24H174.046C178.269 24 181.692 27.4233 181.692 31.6461C181.692 35.869 178.269 39.2923 174.046 39.2923L145.646 39.2922C141.423 39.2922 138 42.7155 138 46.9384C138 51.1612 141.423 54.5845 145.646 54.5845H152.2C156.423 54.5845 159.846 58.0078 159.846 62.2306C159.846 66.4534 156.423 69.8767 152.2 69.8767H144.562C140.938 69.8767 138 72.8145 138 76.4384V78.6303C138 81.0436 139.956 83 142.37 83C144.783 83 146.739 84.9564 146.739 87.3697V91C146.739 95.4183 143.158 99 138.739 99H53.7394C49.3211 99 45.7394 95.4183 45.7394 91C45.7394 86.5817 42.1576 83 37.7394 83H15.5C11.3579 83 8 79.6421 8 75.5C8 71.3579 11.3579 68 15.5 68H54.0927C57.6018 68 60.4465 65.1553 60.4465 61.6461C60.4465 58.137 57.6018 55.2922 54.0927 55.2922H32C27.5817 55.2922 24 51.7105 24 47.2922C24 42.874 27.5817 39.2922 32 39.2922L50.6156 39.2923C54.8384 39.2923 58.2617 35.869 58.2617 31.6461ZM182.093 62.5C182.093 58.3579 178.735 55 174.593 55C170.451 55 167.093 58.3579 167.093 62.5C167.093 66.6421 170.451 70 174.593 70C178.735 70 182.093 66.6421 182.093 62.5Z" fill="#D1D1D1"/>
<rect x="53.2002" y="48" width="33.6" height="9.6" fill="#F1F1F1"/>
<path d="M92.2103 17.9788H45.9795C43.936 17.9788 41.9762 18.7905 40.5312 20.2355C39.0862 21.6805 38.2744 23.6404 38.2744 25.6839V61.6411C38.2744 63.6847 39.0862 65.6445 40.5312 67.0895C41.9762 68.5345 43.936 69.3463 45.9795 69.3463H92.2103C94.2538 69.3463 96.2136 68.5345 97.6586 67.0895C99.1036 65.6445 99.9154 63.6847 99.9154 61.6411V25.6839C99.9154 23.6404 99.1036 21.6805 97.6586 20.2355C96.2136 18.7905 94.2538 17.9788 92.2103 17.9788ZM80.6526 59.0728H57.5372C55.8343 59.0728 54.2011 58.3963 52.9969 57.1921C51.7928 55.988 51.1163 54.3548 51.1163 52.6518C51.1163 50.9489 51.7928 49.3157 52.9969 48.1115C54.2011 46.9074 55.8343 46.2309 57.5372 46.2309H80.6526C82.3555 46.2309 83.9887 46.9074 85.1929 48.1115C86.397 49.3157 87.0735 50.9489 87.0735 52.6518C87.0735 54.3548 86.397 55.988 85.1929 57.1921C83.9887 58.3963 82.3555 59.0728 80.6526 59.0728Z" fill="#F1F1F1"/>
<path d="M92.2093 15.4105H71.6623V5.13698C71.6623 4.4558 71.3917 3.80253 70.9101 3.32086C70.4284 2.8392 69.7751 2.5686 69.094 2.5686C68.4128 2.5686 67.7595 2.8392 67.2778 3.32086C66.7962 3.80253 66.5256 4.4558 66.5256 5.13698V15.4105H45.9786C43.2539 15.4105 40.6408 16.4929 38.7141 18.4195C36.7875 20.3462 35.7051 22.9593 35.7051 25.684V61.6412C35.7051 64.3659 36.7875 66.979 38.7141 68.9057C40.6408 70.8323 43.2539 71.9147 45.9786 71.9147H92.2093C94.934 71.9147 97.5471 70.8323 99.4738 68.9057C101.4 66.979 102.483 64.3659 102.483 61.6412V25.684C102.483 22.9593 101.4 20.3462 99.4738 18.4195C97.5471 16.4929 94.934 15.4105 92.2093 15.4105ZM97.3461 61.6412C97.3461 63.0036 96.8049 64.3101 95.8416 65.2735C94.8782 66.2368 93.5717 66.778 92.2093 66.778H45.9786C44.6162 66.778 43.3097 66.2368 42.3463 65.2735C41.383 64.3101 40.8418 63.0036 40.8418 61.6412V25.684C40.8418 24.3216 41.383 23.0151 42.3463 22.0517C43.3097 21.0884 44.6162 20.5472 45.9786 20.5472H92.2093C93.5717 20.5472 94.8782 21.0884 95.8416 22.0517C96.8049 23.0151 97.3461 24.3216 97.3461 25.684V61.6412ZM51.1153 34.6733C51.1153 33.9113 51.3413 33.1665 51.7646 32.5329C52.1879 31.8994 52.7896 31.4056 53.4936 31.114C54.1975 30.8224 54.9722 30.7461 55.7195 30.8948C56.4668 31.0434 57.1533 31.4103 57.6921 31.9491C58.2309 32.4879 58.5978 33.1744 58.7464 33.9217C58.8951 34.669 58.8188 35.4436 58.5272 36.1476C58.2356 36.8516 57.7418 37.4533 57.1083 37.8766C56.4747 38.2999 55.7299 38.5259 54.9679 38.5259C53.9461 38.5259 52.9662 38.12 52.2437 37.3975C51.5212 36.675 51.1153 35.6951 51.1153 34.6733ZM79.3675 34.6733C79.3675 33.9113 79.5934 33.1665 80.0167 32.5329C80.4401 31.8994 81.0417 31.4056 81.7457 31.114C82.4497 30.8224 83.2243 30.7461 83.9716 30.8948C84.7189 31.0434 85.4054 31.4103 85.9442 31.9491C86.483 32.4879 86.8499 33.1744 86.9986 33.9217C87.1472 34.669 87.0709 35.4436 86.7793 36.1476C86.4877 36.8516 85.9939 37.4533 85.3604 37.8766C84.7268 38.2999 83.982 38.5259 83.22 38.5259C82.1982 38.5259 81.2183 38.12 80.4958 37.3975C79.7733 36.675 79.3675 35.6951 79.3675 34.6733ZM80.6516 43.6626H57.5363C55.1522 43.6626 52.8657 44.6097 51.1799 46.2955C49.494 47.9813 48.547 50.2678 48.547 52.6519C48.547 55.036 49.494 57.3225 51.1799 59.0083C52.8657 60.6941 55.1522 61.6412 57.5363 61.6412H80.6516C83.0358 61.6412 85.3222 60.6941 87.008 59.0083C88.6939 57.3225 89.6409 55.036 89.6409 52.6519C89.6409 50.2678 88.6939 47.9813 87.008 46.2955C85.3222 44.6097 83.0358 43.6626 80.6516 43.6626ZM72.9465 48.7994V56.5045H65.2414V48.7994H72.9465ZM53.6837 52.6519C53.6837 51.6301 54.0896 50.6502 54.8121 49.9277C55.5346 49.2052 56.5145 48.7994 57.5363 48.7994H60.1046V56.5045H57.5363C56.5145 56.5045 55.5346 56.0986 54.8121 55.3761C54.0896 54.6536 53.6837 53.6737 53.6837 52.6519ZM80.6516 56.5045H78.0833V48.7994H80.6516C81.6734 48.7994 82.6533 49.2052 83.3758 49.9277C84.0983 50.6502 84.5042 51.6301 84.5042 52.6519C84.5042 53.6737 84.0983 54.6536 83.3758 55.3761C82.6533 56.0986 81.6734 56.5045 80.6516 56.5045Z" fill="#B0B0B0"/>
<path d="M99.2721 92.0941C99.2714 97.5068 100.696 102.824 103.403 107.511C106.11 112.199 110.003 116.09 114.692 118.795C119.38 121.499 124.698 122.922 130.111 122.918C135.524 122.915 140.84 121.487 145.525 118.776L157.529 122.78C157.982 122.931 158.467 122.953 158.932 122.843C159.396 122.733 159.821 122.497 160.158 122.159C160.495 121.822 160.732 121.398 160.841 120.933C160.951 120.469 160.929 119.983 160.778 119.531L156.775 107.527C159.141 103.434 160.534 98.851 160.846 94.1333C161.158 89.4156 160.38 84.6894 158.573 80.3205C156.766 75.9515 153.978 72.0568 150.424 68.9379C146.871 65.8189 142.648 63.5592 138.082 62.3337C133.515 61.1081 128.728 60.9496 124.091 61.8703C119.453 62.7911 115.09 64.7664 111.338 67.6434C107.586 70.5204 104.546 74.2221 102.454 78.4619C100.362 82.7018 99.2731 87.3661 99.2721 92.0941Z" fill="#F1F1F1"/>
<path d="M130.093 58.7051C135.858 58.7038 141.524 60.195 146.541 63.0335C151.559 65.872 155.756 69.9611 158.724 74.9029C161.692 79.8446 163.33 85.4705 163.478 91.2331C163.627 96.9957 162.281 102.699 159.572 107.787L163.216 118.718C163.517 119.623 163.561 120.595 163.342 121.523C163.123 122.452 162.649 123.301 161.975 123.976C161.3 124.65 160.451 125.124 159.522 125.343C158.594 125.562 157.623 125.518 156.718 125.216L145.786 121.572C141.308 123.954 136.346 125.284 131.278 125.462C126.209 125.64 121.166 124.661 116.533 122.599C111.899 120.537 107.796 117.446 104.535 113.562C101.273 109.677 98.9402 105.101 97.7119 100.18C96.4836 95.2594 96.3924 90.1234 97.4454 85.162C98.4984 80.2007 100.668 75.5444 103.789 71.5467C106.91 67.5489 110.901 64.3148 115.459 62.0897C120.017 59.8647 125.021 58.7072 130.093 58.7051ZM130.093 120.346C135.06 120.349 139.939 119.042 144.238 116.555C144.629 116.328 145.072 116.209 145.523 116.208C145.799 116.208 146.073 116.253 146.335 116.343L158.345 120.346L154.342 108.339C154.226 107.994 154.186 107.628 154.222 107.266C154.259 106.904 154.372 106.554 154.554 106.239C157.668 100.855 158.918 94.5936 158.111 88.4262C157.303 82.2588 154.483 76.5303 150.088 72.1293C145.692 67.7283 139.967 64.9009 133.801 64.0856C127.635 63.2703 121.371 64.5127 115.983 67.6202C110.595 70.7276 106.383 75.5264 104 81.2719C101.618 87.0175 101.198 93.3888 102.806 99.3974C104.414 105.406 107.96 110.716 112.894 114.504C117.827 118.291 123.873 120.345 130.093 120.346ZM126.241 92.094C126.241 92.8559 126.466 93.6008 126.89 94.2343C127.313 94.8679 127.915 95.3617 128.619 95.6533C129.323 95.9448 130.097 96.0211 130.845 95.8725C131.592 95.7238 132.278 95.3569 132.817 94.8181C133.356 94.2793 133.723 93.5929 133.872 92.8455C134.02 92.0982 133.944 91.3236 133.652 90.6196C133.361 89.9157 132.867 89.314 132.233 88.8907C131.6 88.4673 130.855 88.2414 130.093 88.2414C129.071 88.2414 128.091 88.6473 127.369 89.3698C126.646 90.0923 126.241 91.0722 126.241 92.094ZM140.367 92.094C140.367 92.8559 140.593 93.6008 141.016 94.2343C141.439 94.8679 142.041 95.3617 142.745 95.6533C143.449 95.9448 144.223 96.0211 144.971 95.8725C145.718 95.7238 146.405 95.3569 146.943 94.8181C147.482 94.2793 147.849 93.5929 147.998 92.8455C148.146 92.0982 148.07 91.3236 147.778 90.6196C147.487 89.9157 146.993 89.314 146.36 88.8907C145.726 88.4673 144.981 88.2414 144.219 88.2414C143.197 88.2414 142.217 88.6473 141.495 89.3698C140.772 90.0923 140.367 91.0722 140.367 92.094ZM112.114 92.094C112.114 92.8559 112.34 93.6008 112.764 94.2343C113.187 94.8679 113.789 95.3617 114.493 95.6533C115.197 95.9448 115.971 96.0211 116.719 95.8725C117.466 95.7238 118.152 95.3569 118.691 94.8181C119.23 94.2793 119.597 93.5929 119.746 92.8455C119.894 92.0982 119.818 91.3236 119.526 90.6196C119.235 89.9157 118.741 89.314 118.107 88.8907C117.474 88.4673 116.729 88.2414 115.967 88.2414C114.945 88.2414 113.965 88.6473 113.243 89.3698C112.52 90.0923 112.114 91.0722 112.114 92.094Z" fill="#B0B0B0"/>
</svg>
