<svg width="183" height="160" viewBox="0 0 183 160" fill="none" xmlns="http://www.w3.org/2000/svg">
<path fill-rule="evenodd" clip-rule="evenodd" d="M0 42.5C0 38.3579 3.35786 35 7.5 35H25.5C29.6421 35 33 38.3579 33 42.5C33 46.6421 29.6421 50 25.5 50H7.5C3.35786 50 0 46.6421 0 42.5ZM58.2617 56.6461C58.2617 52.4233 61.685 49 65.9078 49H174.046C178.269 49 181.692 52.4233 181.692 56.6461C181.692 60.869 178.269 64.2923 174.046 64.2923L145.646 64.2922C141.423 64.2922 138 67.7155 138 71.9384C138 76.1612 141.423 79.5845 145.646 79.5845H152.2C156.423 79.5845 159.846 83.0078 159.846 87.2306C159.846 91.4534 156.423 94.8767 152.2 94.8767H144.562C140.938 94.8767 138 97.8145 138 101.438V103.63C138 106.044 139.956 108 142.37 108C144.783 108 146.739 109.956 146.739 112.37V116C146.739 120.418 143.158 124 138.739 124H53.7394C49.3211 124 45.7394 120.418 45.7394 116C45.7394 111.582 42.1576 108 37.7394 108H15.5C11.3579 108 8 104.642 8 100.5C8 96.3579 11.3579 93 15.5 93H54.0927C57.6018 93 60.4465 90.1553 60.4465 86.6461C60.4465 83.137 57.6018 80.2922 54.0927 80.2922H32C27.5817 80.2922 24 76.7105 24 72.2922C24 67.874 27.5817 64.2922 32 64.2922L50.6156 64.2923C54.8384 64.2923 58.2617 60.869 58.2617 56.6461ZM182.093 87.5C182.093 83.3579 178.735 80 174.593 80C170.451 80 167.093 83.3579 167.093 87.5C167.093 91.6421 170.451 95 174.593 95C178.735 95 182.093 91.6421 182.093 87.5Z" fill="#D1D1D1"/>
<path d="M143.116 75.4729C144.835 84.6263 143.8 94.0836 140.143 102.649C136.487 111.214 130.372 118.503 122.573 123.593C114.774 128.684 105.641 131.347 96.3283 131.247C87.0157 131.146 77.9419 128.286 70.2545 123.029C62.5671 117.772 56.6113 110.353 53.1403 101.711C49.6692 93.0683 48.8389 83.5909 50.7542 74.4767C52.6696 65.3626 57.2445 57.0211 63.9006 50.507C70.5567 43.993 78.9949 39.599 88.1483 37.8807C100.423 35.5765 113.109 38.2427 123.418 45.2926C133.726 52.3425 140.812 63.1987 143.116 75.4729Z" fill="#F1F1F1"/>
<path d="M87.3584 33.6734C77.3729 35.5479 68.1675 40.3413 60.9064 47.4475C53.6452 54.5538 48.6543 63.6536 46.5648 73.5963C44.4754 83.539 45.3812 93.878 49.1678 103.306C52.9544 112.734 59.4516 120.827 67.8378 126.562C76.2241 132.298 86.1228 135.417 96.2821 135.527C106.441 135.637 116.405 132.731 124.913 127.178C133.421 121.625 140.091 113.674 144.08 104.33C148.069 94.9856 149.198 84.6685 147.323 74.683C144.795 61.3005 137.062 49.4672 125.821 41.7791C114.579 34.091 100.747 31.1759 87.3584 33.6734ZM104.734 126.234C96.4129 127.796 87.8154 126.855 80.0287 123.531C72.242 120.207 65.6159 114.648 60.9883 107.558C56.3607 100.468 53.9395 92.1651 54.0308 83.6991C54.1221 75.233 56.7219 66.9841 61.5013 59.9955C66.2807 53.007 73.0252 47.5926 80.8817 44.4372C88.7383 41.2817 97.3542 40.5268 105.64 42.2681C113.925 44.0093 121.509 48.1683 127.43 54.2193C133.352 60.2703 137.347 67.9414 138.909 76.2626C140.99 87.4196 138.561 98.9465 132.154 108.315C125.748 117.683 115.886 124.127 104.734 126.234ZM52.2385 38.9922L38.5686 58.9806C37.9273 59.9182 36.9398 60.5627 35.8234 60.7723C34.7069 60.9819 33.5529 60.7394 32.6153 60.0982C31.6776 59.4569 31.0331 58.4694 30.8235 57.353C30.6139 56.2365 30.8564 55.0825 31.4977 54.1448L45.1676 34.1565C45.8088 33.2188 46.7963 32.5743 47.9128 32.3647C49.0292 32.1551 50.1832 32.3976 51.1209 33.0389C52.0585 33.6802 52.7031 34.6676 52.9126 35.7841C53.1222 36.9006 52.8797 38.0546 52.2385 38.9922ZM147.958 38.4456C147.641 38.9101 147.235 39.3075 146.764 39.6151C146.293 39.9227 145.766 40.1345 145.213 40.2383C144.66 40.3421 144.092 40.3359 143.542 40.22C142.991 40.1042 142.469 39.881 142.005 39.5631L122.016 25.8932C121.079 25.252 120.434 24.2645 120.224 23.148C120.015 22.0316 120.257 20.8776 120.899 19.9399C121.54 19.0023 122.527 18.3578 123.644 18.1482C124.76 17.9386 125.914 18.1811 126.852 18.8224L146.84 32.4922C147.305 32.8096 147.702 33.2153 148.01 33.6863C148.318 34.1573 148.529 34.6844 148.633 35.2373C148.737 35.7902 148.731 36.3581 148.615 36.9086C148.499 37.4591 148.276 37.9814 147.958 38.4456ZM125.497 74.4248C126.613 74.2153 127.766 74.4577 128.704 75.0986C129.641 75.7395 130.285 76.7264 130.494 77.8423C130.704 78.9581 130.461 80.1115 129.821 81.0486C129.18 81.9857 128.193 82.6299 127.077 82.8394L97.6259 88.368C96.51 88.5775 95.3567 88.3351 94.4195 87.6942C93.4824 87.0533 92.8383 86.0664 92.6288 84.9505L87.1001 55.4996C86.8907 54.3837 87.133 53.2304 87.7739 52.2932C88.4148 51.3561 89.4018 50.7119 90.5176 50.5025C91.6334 50.293 92.7868 50.5354 93.7239 51.1763C94.6611 51.8172 95.3052 52.8041 95.5147 53.92L100.254 79.1636L125.497 74.4248Z" fill="#B0B0B0"/>
</svg>
