<svg width="183" height="161" viewBox="0 0 183 161" fill="none" xmlns="http://www.w3.org/2000/svg">
<path fill-rule="evenodd" clip-rule="evenodd" d="M0 43.5C0 39.3579 3.35786 36 7.5 36H25.5C29.6421 36 33 39.3579 33 43.5V43.5C33 47.6421 29.6421 51 25.5 51H7.5C3.35786 51 0 47.6421 0 43.5V43.5ZM58.2617 57.6461C58.2617 53.4233 61.685 50 65.9078 50H174.046C178.269 50 181.692 53.4233 181.692 57.6461V57.6461C181.692 61.869 178.269 65.2923 174.046 65.2923L145.646 65.2922C141.423 65.2922 138 68.7155 138 72.9384V72.9384C138 77.1612 141.423 80.5845 145.646 80.5845H152.2C156.423 80.5845 159.846 84.0078 159.846 88.2306V88.2306C159.846 92.4534 156.423 95.8767 152.2 95.8767H144.562C140.938 95.8767 138 98.8145 138 102.438V104.63C138 107.044 139.956 109 142.37 109V109C144.783 109 146.739 110.956 146.739 113.37V117C146.739 121.418 143.158 125 138.739 125H53.7394C49.3211 125 45.7394 121.418 45.7394 117V117C45.7394 112.582 42.1576 109 37.7394 109H15.5C11.3579 109 8 105.642 8 101.5V101.5C8 97.3579 11.3579 94 15.5 94H54.0927C57.6018 94 60.4465 91.1553 60.4465 87.6461V87.6461C60.4465 84.137 57.6018 81.2922 54.0927 81.2922H32C27.5817 81.2922 24 77.7105 24 73.2922V73.2922C24 68.874 27.5817 65.2922 32 65.2922L50.6156 65.2923C54.8384 65.2923 58.2617 61.869 58.2617 57.6461V57.6461ZM182.093 88.5C182.093 84.3579 178.735 81 174.593 81V81C170.451 81 167.093 84.3579 167.093 88.5V88.5C167.093 92.6421 170.451 96 174.593 96V96C178.735 96 182.093 92.6421 182.093 88.5V88.5Z" fill="#D1D1D1"/>
<path d="M116.477 94.1599L94.7969 125.858C91.1708 131.159 85.588 134.802 79.2763 135.986C72.9645 137.171 66.4407 135.8 61.1395 132.175C55.8392 128.549 52.1961 122.967 51.0115 116.655C49.8268 110.343 51.1977 103.819 54.8225 98.5181L76.5025 66.8197L116.477 94.1599Z" fill="#F1F1F1"/>
<path d="M76.7515 64.263L98.9603 32.9329C102.675 27.6941 108.318 24.1452 114.649 23.0666C120.979 21.9881 127.479 23.4682 132.719 27.1814C137.958 30.8959 141.507 36.539 142.585 42.8698C143.664 49.2005 142.184 55.7004 138.47 60.94L116.261 92.2702L76.7515 64.263Z" fill="#F1F1F1"/>
<path d="M134.269 25.2724C128.029 21.0056 120.35 19.3919 112.921 20.7862C105.492 22.1806 98.9208 26.4689 94.6531 32.7078L51.2922 96.0994C47.1394 102.34 45.6126 109.965 47.0423 117.323C48.472 124.681 52.7433 131.18 58.9307 135.411C65.1181 139.643 72.7234 141.266 80.0991 139.929C87.4748 138.592 94.0269 134.404 98.336 128.27L141.702 64.8776C145.959 58.637 147.567 50.9628 146.173 43.5383C144.78 36.1138 140.499 29.5449 134.269 25.2724ZM91.2718 123.439C88.2871 127.804 83.6907 130.804 78.4937 131.78C73.2968 132.756 67.9251 131.627 63.5602 128.642C59.1954 125.658 56.1949 121.061 55.219 115.864C54.2431 110.668 55.3717 105.296 58.3564 100.931L77.6185 72.7677L110.534 95.2755L91.2718 123.439ZM134.633 60.0471L115.36 88.2122L82.4553 65.7025L101.723 37.5383C104.735 33.2421 109.32 30.3068 114.483 29.369C119.646 28.4312 124.97 29.5665 129.301 32.5288C133.632 35.4911 136.621 40.0414 137.619 45.1929C138.617 50.3444 137.544 55.6816 134.633 60.0471ZM124.42 50.3895C124.884 50.7069 125.282 51.1126 125.589 51.5836C125.897 52.0546 126.109 52.5816 126.212 53.1345C126.316 53.6874 126.31 54.2553 126.194 54.8058C126.078 55.3563 125.855 55.8785 125.537 56.3427L115.284 71.3331C114.967 71.797 114.561 72.1938 114.09 72.5008C113.619 72.8079 113.092 73.0192 112.54 73.1227C111.987 73.2261 111.42 73.2197 110.869 73.1038C110.319 72.988 109.797 72.7649 109.333 72.4473C108.87 72.1297 108.473 71.7238 108.166 71.2529C107.859 70.7819 107.647 70.2551 107.544 69.7025C107.44 69.1499 107.447 68.5823 107.563 68.0322C107.679 67.4821 107.902 66.9602 108.219 66.4963L118.472 51.5059C119.113 50.5694 120.099 49.9258 121.215 49.7164C122.33 49.5071 123.483 49.7492 124.42 50.3895Z" fill="#B0B0B0"/>
</svg>
