<svg width="183" height="160" viewBox="0 0 183 160" fill="none" xmlns="http://www.w3.org/2000/svg">
<path fill-rule="evenodd" clip-rule="evenodd" d="M0 39.5C0 35.3579 3.35786 32 7.5 32H25.5C29.6421 32 33 35.3579 33 39.5C33 43.6421 29.6421 47 25.5 47H7.5C3.35786 47 0 43.6421 0 39.5ZM58.2617 53.6461C58.2617 49.4233 61.685 46 65.9078 46H174.046C178.269 46 181.692 49.4233 181.692 53.6461C181.692 57.869 178.269 61.2923 174.046 61.2923L145.646 61.2922C141.423 61.2922 138 64.7155 138 68.9384C138 73.1612 141.423 76.5845 145.646 76.5845H152.2C156.423 76.5845 159.846 80.0078 159.846 84.2306C159.846 88.4534 156.423 91.8767 152.2 91.8767H144.562C140.938 91.8767 138 94.8145 138 98.4384V100.63C138 103.044 139.956 105 142.37 105C144.783 105 146.739 106.956 146.739 109.37V113C146.739 117.418 143.158 121 138.739 121H53.7394C49.3211 121 45.7394 117.418 45.7394 113C45.7394 108.582 42.1576 105 37.7394 105H15.5C11.3579 105 8 101.642 8 97.5C8 93.3579 11.3579 90 15.5 90H54.0927C57.6018 90 60.4465 87.1553 60.4465 83.6461C60.4465 80.137 57.6018 77.2922 54.0927 77.2922H32C27.5817 77.2922 24 73.7105 24 69.2922C24 64.874 27.5817 61.2922 32 61.2922L50.6156 61.2923C54.8384 61.2923 58.2617 57.869 58.2617 53.6461ZM182.093 84.5C182.093 80.3579 178.735 77 174.593 77C170.451 77 167.093 80.3579 167.093 84.5C167.093 88.6421 170.451 92 174.593 92C178.735 92 182.093 88.6421 182.093 84.5Z" fill="#D1D1D1"/>
<circle cx="103.459" cy="112.459" r="19" fill="#F1F1F1"/>
<path d="M146.338 105.71L62.1946 121.502C61.4574 121.636 60.698 121.574 59.9923 121.322C59.2866 121.071 58.6593 120.638 58.1732 120.068C57.687 119.498 57.359 118.81 57.2219 118.074C57.0848 117.337 57.1435 116.577 57.392 115.871C59.7324 109.225 62.04 97.4734 58.5055 78.641C56.6207 68.5988 58.8023 58.219 64.5705 49.7853C70.3387 41.3516 79.221 35.5547 89.2633 33.6699C99.3056 31.7851 109.685 33.9668 118.119 39.735C126.553 45.5032 132.35 54.3854 134.234 64.4277C137.77 83.2653 144.186 93.3742 148.782 98.7179C149.271 99.2872 149.601 99.9749 149.74 100.712C149.879 101.449 149.822 102.21 149.574 102.918C149.327 103.626 148.897 104.257 148.329 104.747C147.761 105.237 147.075 105.569 146.338 105.71Z" fill="#F1F1F1"/>
<path d="M142.819 40.5496C141.924 41.2483 140.79 41.5635 139.663 41.4257C138.537 41.288 137.511 40.7087 136.812 39.8151C131.307 32.6356 123.97 27.0713 115.572 23.7069C115.049 23.4998 114.572 23.1917 114.169 22.8002C113.765 22.4087 113.442 21.9415 113.219 21.4253C112.995 20.9091 112.876 20.354 112.867 19.7916C112.859 19.2293 112.961 18.6707 113.168 18.1478C113.375 17.6249 113.683 17.1479 114.075 16.7441C114.466 16.3403 114.933 16.0175 115.449 15.7942C115.966 15.571 116.521 15.4516 117.083 15.4428C117.645 15.4341 118.204 15.5362 118.727 15.7434C128.521 19.7007 137.089 26.1883 143.553 34.5429C144.252 35.437 144.567 36.572 144.429 37.6983C144.291 38.8247 143.712 39.8502 142.819 40.5496ZM43.8865 59.6079C44.6572 59.4629 45.3733 59.1089 45.9566 58.5847C46.5398 58.0605 46.9679 57.3861 47.194 56.6352C49.7208 47.9483 54.5407 40.1023 61.1473 33.9218C61.9798 33.149 62.4712 32.0771 62.5134 30.942C62.5556 29.807 62.1451 28.7016 61.3724 27.8691C60.5996 27.0366 59.5277 26.5452 58.3926 26.503C57.2576 26.4608 56.1522 26.8713 55.3197 27.6441C47.6269 34.8835 41.995 44.0362 38.9998 54.1662C38.788 54.8697 38.7608 55.6159 38.9209 56.333C39.0809 57.05 39.4229 57.7138 39.9138 58.2605C40.4047 58.8071 41.028 59.2182 41.7238 59.4542C42.4196 59.6902 43.1644 59.7431 43.8865 59.6079ZM152.015 95.9007C153 97.0389 153.668 98.4169 153.951 99.8955C154.233 101.374 154.121 102.901 153.626 104.323C153.13 105.744 152.268 107.01 151.127 107.992C149.986 108.974 148.607 109.638 147.127 109.917L125.671 113.944C125.598 118.88 123.82 123.64 120.639 127.416C117.459 131.192 113.07 133.752 108.218 134.663C103.366 135.574 98.3476 134.779 94.0142 132.413C89.6808 130.047 86.2985 126.256 84.4404 121.682L62.9839 125.709C61.5046 125.984 59.9791 125.864 58.561 125.361C57.1429 124.859 55.8824 123.991 54.9063 122.846C53.9302 121.701 53.273 120.319 53.001 118.84C52.729 117.36 52.8518 115.835 53.357 114.417C56.5604 105.35 56.8919 93.2511 54.2979 79.4306C52.2037 68.2725 54.6278 56.7395 61.0369 47.3687C67.446 37.9979 77.3152 31.5569 88.4733 29.4627C99.6314 27.3684 111.164 29.7925 120.535 36.2016C129.906 42.6108 136.347 52.4799 138.441 63.638C141.034 77.4533 145.73 88.609 152.015 95.9007ZM116.951 115.58L93.1598 120.046C94.4927 122.34 96.5038 124.166 98.9164 125.271C101.329 126.375 104.025 126.706 106.633 126.216C109.241 125.727 111.633 124.442 113.481 122.537C115.329 120.632 116.541 118.202 116.951 115.58ZM145.548 101.502C138.149 92.9446 132.94 80.7365 130.027 65.2173C128.352 56.2908 123.199 48.3955 115.702 43.2682C108.205 38.1409 98.979 36.2016 90.0526 37.877C81.1261 39.5524 73.2308 44.7052 68.1035 52.2018C62.9762 59.6985 61.0369 68.9249 62.7123 77.8514C65.626 93.3758 65.1873 106.644 61.4046 117.295L145.548 101.502Z" fill="#B0B0B0"/>
</svg>
