<svg width="183" height="161" viewBox="0 0 183 161" fill="none" xmlns="http://www.w3.org/2000/svg">
<path fill-rule="evenodd" clip-rule="evenodd" d="M0 40.5C0 36.3579 3.35786 33 7.5 33H25.5C29.6421 33 33 36.3579 33 40.5C33 44.6421 29.6421 48 25.5 48H7.5C3.35786 48 0 44.6421 0 40.5ZM58.2617 54.6461C58.2617 50.4233 61.685 47 65.9078 47H174.046C178.269 47 181.692 50.4233 181.692 54.6461C181.692 58.869 178.269 62.2923 174.046 62.2923L145.646 62.2922C141.423 62.2922 138 65.7155 138 69.9384C138 74.1612 141.423 77.5845 145.646 77.5845H152.2C156.423 77.5845 159.846 81.0078 159.846 85.2306C159.846 89.4534 156.423 92.8767 152.2 92.8767H144.562C140.938 92.8767 138 95.8145 138 99.4384V101.63C138 104.044 139.956 106 142.37 106C144.783 106 146.739 107.956 146.739 110.37V114C146.739 118.418 143.158 122 138.739 122H53.7394C49.3211 122 45.7394 118.418 45.7394 114C45.7394 109.582 42.1576 106 37.7394 106H15.5C11.3579 106 8 102.642 8 98.5C8 94.3579 11.3579 91 15.5 91H54.0927C57.6018 91 60.4465 88.1553 60.4465 84.6461C60.4465 81.137 57.6018 78.2922 54.0927 78.2922H32C27.5817 78.2922 24 74.7105 24 70.2922C24 65.874 27.5817 62.2922 32 62.2922L50.6156 62.2923C54.8384 62.2923 58.2617 58.869 58.2617 54.6461ZM182.093 85.5C182.093 81.3579 178.735 78 174.593 78C170.451 78 167.093 81.3579 167.093 85.5C167.093 89.6421 170.451 93 174.593 93C178.735 93 182.093 89.6421 182.093 85.5Z" fill="#D1D1D1"/>
<path d="M44 42.7378L134.413 25.7684L146.375 89.5L126.921 121L61.0106 133.37L44 42.7378Z" fill="#F1F1F1"/>
<path d="M146.927 88.6325L123.004 123.61L117.477 94.1599L146.927 88.6325Z" fill="#F1F1F1"/>
<path d="M73.2955 67.6094C73.0861 66.4936 73.3285 65.3403 73.9694 64.4032C74.6103 63.4661 75.5972 62.822 76.713 62.6126L110.37 56.2956C111.486 56.0861 112.639 56.3286 113.577 56.9695C114.514 57.6104 115.158 58.5973 115.367 59.7131C115.577 60.8289 115.334 61.9822 114.693 62.9193C114.052 63.8564 113.065 64.5005 111.95 64.7099L78.2923 71.0269C77.1765 71.2364 76.0232 70.9939 75.0861 70.353C74.149 69.7121 73.5049 68.7252 73.2955 67.6094ZM81.4508 87.8556L115.108 81.5386C116.224 81.3291 117.211 80.685 117.852 79.748C118.493 78.8109 118.735 77.6576 118.526 76.5418C118.316 75.426 117.672 74.439 116.735 73.7981C115.798 73.1572 114.645 72.9148 113.529 73.1242L79.8716 79.4413C78.7558 79.6507 77.7688 80.2948 77.1279 81.2319C76.487 82.1689 76.2446 83.3222 76.454 84.4381C76.6635 85.5539 77.3076 86.5408 78.2446 87.1817C79.1817 87.8226 80.335 88.065 81.4508 87.8556ZM99.8587 93.1114L83.0301 96.2699C81.9143 96.4793 80.9274 97.1234 80.2864 98.0605C79.6455 98.9976 79.4031 100.151 79.6125 101.267C79.822 102.383 80.4661 103.369 81.4032 104.01C82.3402 104.651 83.4935 104.894 84.6093 104.684L101.438 101.526C102.554 101.316 103.541 100.672 104.182 99.7351C104.823 98.7981 105.065 97.6447 104.856 96.5289C104.646 95.4131 104.002 94.4262 103.065 93.7853C102.128 93.1444 100.975 92.902 99.8587 93.1114ZM140.08 28.9427L150.808 86.1023C151.019 87.207 151.008 88.3427 150.776 89.4432C150.544 90.5438 150.096 91.5873 149.458 92.5131L127.538 124.561C126.907 125.492 126.097 126.288 125.156 126.903C124.214 127.518 123.159 127.94 122.053 128.144L64.8938 138.872C62.6621 139.291 60.3555 138.806 58.4814 137.524C56.6072 136.243 55.319 134.269 54.9002 132.037L39.1076 47.8938C38.6887 45.6622 39.1735 43.3556 40.4554 41.4814C41.7372 39.6073 43.711 38.3191 45.9426 37.9002L130.086 22.1076C132.318 21.6888 134.624 22.1736 136.498 23.4554C138.372 24.7373 139.661 26.7111 140.08 28.9427ZM63.3145 130.458L118.008 120.193L113.27 94.9497C113.06 93.8339 113.303 92.6806 113.944 91.7435C114.585 90.8064 115.572 90.1623 116.687 89.9529L141.93 85.2151L131.665 30.522L47.5219 46.3146L63.3145 130.458ZM122.474 97.5776L125.307 112.671L137.562 94.7458L122.474 97.5776Z" fill="#B0B0B0"/>
</svg>
