<svg width="246" height="284" viewBox="0 0 246 284" fill="none" xmlns="http://www.w3.org/2000/svg">
<g filter="url(#filter0_d_728_2640)">
<path d="M186.255 83.3625C197.581 103.304 202.049 121.606 202.27 140.083C202.491 158.561 198.432 177.263 187.051 194.898C175.67 212.533 157.051 229.153 132.23 235.31C107.409 241.467 76.4362 237.232 59.9409 219.536C43.4456 201.84 41.3505 170.882 45.9949 144.514C50.6393 118.146 61.9689 96.3814 78.4738 76.4494C94.9787 56.5173 116.701 38.3984 136.657 40.1154C156.613 41.8325 174.884 63.424 186.255 83.3625Z" fill="white"/>
</g>
<path d="M132.969 48.6235L21.6982 165.698L216.018 203.627L132.969 48.6235Z" stroke="#E7E7E7" stroke-width="3.11429" stroke-linecap="round" stroke-linejoin="round"/>
<path d="M80.1492 54.272H61.2549V89.6801H80.1492V54.272Z" fill="#4F4F4F"/>
<path d="M69.3701 102.695L123.686 215.24L177.608 101.472L69.3701 102.695Z" fill="#6AA5A6"/>
<path d="M123.165 88.0619C132.556 88.0619 140.169 80.4374 140.169 71.0322C140.169 61.6269 132.556 54.0024 123.165 54.0024C113.774 54.0024 106.161 61.6269 106.161 71.0322C106.161 80.4374 113.774 88.0619 123.165 88.0619Z" fill="#E0EDEC"/>
<path d="M116.614 47.5571C118.591 53.685 122.375 59.069 127.469 62.9991C132.562 66.9291 138.726 69.2207 145.146 69.5715" stroke="#4F898B" stroke-width="3.20714" stroke-linecap="round" stroke-linejoin="round"/>
<path d="M123.725 72.602C123.492 70.8593 123.959 69.3569 124.768 69.248C125.577 69.139 126.425 70.4653 126.658 72.208C126.892 73.9507 126.425 75.4499 125.612 75.5588C124.8 75.6677 123.959 74.3447 123.725 72.602Z" stroke="#4F898B" stroke-width="3.20714" stroke-linecap="round" stroke-linejoin="round"/>
<path d="M169.59 214.199C167.671 218.245 163.398 228.561 171.126 240L184.979 210.797L173.742 205.451L169.59 214.199Z" fill="#D1D1D1"/>
<path fill-rule="evenodd" clip-rule="evenodd" d="M151.643 129.634C151.643 126.951 152.437 124.33 153.925 122.1C155.413 119.869 157.527 118.131 160.002 117.105C162.476 116.079 165.198 115.811 167.825 116.334C170.452 116.858 172.864 118.149 174.758 120.046C176.651 121.943 177.94 124.359 178.462 126.99C178.984 129.621 178.716 132.347 177.691 134.825C176.665 137.303 174.929 139.421 172.702 140.91C170.475 142.4 167.857 143.195 165.179 143.194C163.401 143.194 161.641 142.843 159.998 142.162C158.356 141.48 156.863 140.481 155.606 139.222C154.349 137.963 153.352 136.468 152.672 134.823C151.992 133.177 151.642 131.414 151.643 129.634V129.634Z" fill="#E0EDEC"/>
<path fill-rule="evenodd" clip-rule="evenodd" d="M45.9502 84.785C45.9502 82.103 46.7443 79.4812 48.2321 77.2512C49.7198 75.0213 51.8345 73.2832 54.3085 72.2568C56.7826 71.2305 59.505 70.9619 62.1315 71.4852C64.7579 72.0084 67.1705 73.2999 69.064 75.1964C70.9576 77.0928 72.2472 79.509 72.7696 82.1395C73.292 84.7699 73.0239 87.4965 71.9991 89.9743C70.9743 92.4521 69.2389 94.57 67.0123 96.06C64.7857 97.55 62.1679 98.3453 59.49 98.3453C55.899 98.3453 52.4551 96.9166 49.9159 94.3736C47.3767 91.8305 45.9502 88.3814 45.9502 84.785V84.785Z" fill="#E0EDEC"/>
<path d="M131.322 102.125C129.197 111.67 130.27 121.65 134.375 130.523C138.48 139.396 145.388 146.668 154.032 151.216" stroke="#EBCACA" stroke-width="3.67143" stroke-linecap="round" stroke-linejoin="round"/>
<path d="M123.491 210.496C126.349 204.34 127.761 197.61 127.619 190.823C127.477 184.035 125.785 177.37 122.672 171.34C119.56 165.309 115.109 160.072 109.662 156.031C104.215 151.99 97.9164 149.253 91.249 148.028" stroke="#EBCACA" stroke-width="3.67143" stroke-linecap="round" stroke-linejoin="round"/>
<path d="M85.8916 136.931C94.3358 135.079 102.057 130.8 108.108 124.617C114.159 118.435 118.277 110.618 119.957 102.125" stroke="#EBCACA" stroke-width="3.67143" stroke-linecap="round" stroke-linejoin="round"/>
<path d="M82.8975 215.82C82.7248 220.305 81.7396 231.421 69.5977 237.969L70.8387 205.662L83.2686 206.139L82.8975 215.82Z" fill="#888888"/>
<path d="M181.831 183.045C167.969 141.083 88.1725 202.096 81.6665 206.959C74.2777 212.482 79.9809 220.03 83.1955 220.533C86.4101 221.035 191.514 212.348 181.831 183.045Z" fill="#888888"/>
<path d="M73.7787 175.844C59.3114 217.598 159.716 217.752 167.818 217.855C177.037 217.973 177.094 208.507 174.855 206.149C172.616 203.791 83.8864 146.676 73.7787 175.844Z" fill="#D1D1D1"/>
<defs>
<filter id="filter0_d_728_2640" x="0.983677" y="0.00244093" width="244.152" height="283.683" filterUnits="userSpaceOnUse" color-interpolation-filters="sRGB">
<feFlood flood-opacity="0" result="BackgroundImageFix"/>
<feColorMatrix in="SourceAlpha" type="matrix" values="0 0 0 0 0 0 0 0 0 0 0 0 0 0 0 0 0 0 127 0" result="hardAlpha"/>
<feOffset dy="2.85714"/>
<feGaussianBlur stdDeviation="21.4286"/>
<feComposite in2="hardAlpha" operator="out"/>
<feColorMatrix type="matrix" values="0 0 0 0 0.415686 0 0 0 0 0.647059 0 0 0 0 0.65098 0 0 0 0.25 0"/>
<feBlend mode="normal" in2="BackgroundImageFix" result="effect1_dropShadow_728_2640"/>
<feBlend mode="normal" in="SourceGraphic" in2="effect1_dropShadow_728_2640" result="shape"/>
</filter>
</defs>
</svg>
