<svg width="279" height="280" viewBox="0 0 279 280" fill="none" xmlns="http://www.w3.org/2000/svg">
<g filter="url(#filter0_d_728_2641)">
<path d="M226.242 73.4096C237.068 95.3049 222.584 129.189 212.303 159.953C202.022 190.718 195.996 218.356 178.983 228.656C162.017 238.964 134.046 231.981 111.503 219.05C89.0163 206.122 71.9075 187.249 58.8072 159.06C45.6563 130.863 36.5617 93.3737 51.2442 70.5872C65.9745 47.8486 104.485 39.8231 141.858 40.7648C179.182 41.6506 215.417 51.5648 226.242 73.4096Z" fill="white"/>
</g>
<path d="M105.005 47.8271L26.1211 145.567L168.062 181.213L105.005 47.8271Z" stroke="#E7E7E7" stroke-width="2.95" stroke-linecap="round" stroke-linejoin="round"/>
<path fill-rule="evenodd" clip-rule="evenodd" d="M120.107 200.017C111.473 199.394 102.947 202.232 96.4004 207.906C89.8541 213.581 85.8242 221.628 85.1963 230.279L150.305 235C150.927 226.349 148.095 217.804 142.433 211.245C136.77 204.685 128.74 200.646 120.107 200.017Z" fill="#888888"/>
<path d="M139.389 99.4226C149.484 99.4226 157.668 91.2216 157.668 81.1051C157.668 70.9886 149.484 62.7876 139.389 62.7876C129.293 62.7876 121.109 70.9886 121.109 81.1051C121.109 91.2216 129.293 99.4226 139.389 99.4226Z" fill="#E0EDEC"/>
<path d="M144.93 77.4633C145.689 75.7316 145.652 74.0398 144.848 73.6887C144.043 73.3375 142.777 74.4521 142.018 76.1838C141.259 77.9156 141.312 79.6047 142.108 79.9559C142.905 80.307 144.173 79.1951 144.93 77.4633Z" stroke="#4F898B" stroke-width="4.43571" stroke-linecap="round" stroke-linejoin="round"/>
<path d="M132.758 73.3056C133.517 71.5739 133.48 69.8821 132.675 69.5309C131.871 69.1798 130.605 70.2944 129.846 72.0261C129.086 73.7578 129.126 75.447 129.931 75.8008C130.735 76.1546 132.001 75.0241 132.758 73.3056Z" stroke="#4F898B" stroke-width="4.43571" stroke-linecap="round" stroke-linejoin="round"/>
<path d="M149.325 57.9118C155.638 57.9118 160.756 52.7834 160.756 46.4573C160.756 40.1312 155.638 35.0029 149.325 35.0029C143.012 35.0029 137.895 40.1312 137.895 46.4573C137.895 52.7834 143.012 57.9118 149.325 57.9118Z" fill="#4F898B"/>
<path d="M86.8262 121.802L117.314 221.003L175.779 134.382L86.8262 121.802Z" fill="#6AA5A6"/>
<path d="M88.3519 55.5786H34.1904V85.0526H88.3519V55.5786Z" fill="#EBCACA"/>
<path fill-rule="evenodd" clip-rule="evenodd" d="M76.1123 85.0527L88.3526 99.4306V85.0527H76.1123Z" fill="#EBCACA"/>
<path fill-rule="evenodd" clip-rule="evenodd" d="M194.44 58.2759L182.2 72.6511V58.2759H194.44Z" fill="#EBCACA"/>
<path d="M182.245 58.3184L236.406 58.3184V38.5086L182.245 38.5086V58.3184Z" fill="#EBCACA"/>
<path d="M108.894 193.601C115.856 189.524 123.776 187.382 131.84 187.395C134.426 187.394 137.007 187.612 139.557 188.046" stroke="#EBCACA" stroke-width="4.95714" stroke-linecap="round" stroke-linejoin="round"/>
<path d="M104.813 180.526C111.04 176.749 118.079 174.519 125.341 174.022C132.603 173.526 139.878 174.777 146.559 177.672" stroke="#EBCACA" stroke-width="4.95714" stroke-linecap="round" stroke-linejoin="round"/>
<path d="M155.59 164.281C146.163 162.672 137.48 158.132 130.77 151.306C124.06 144.479 119.661 135.711 118.197 126.242" stroke="#EBCACA" stroke-width="4.95714" stroke-linecap="round" stroke-linejoin="round"/>
<path fill-rule="evenodd" clip-rule="evenodd" d="M84.7813 183.777C84.7813 181.338 85.5032 178.953 86.8557 176.924C88.2083 174.896 90.1308 173.315 92.38 172.381C94.6292 171.448 97.1042 171.203 99.492 171.679C101.88 172.155 104.073 173.33 105.795 175.055C107.516 176.78 108.688 178.978 109.163 181.371C109.638 183.764 109.395 186.244 108.463 188.498C107.531 190.752 105.953 192.678 103.929 194.033C101.905 195.389 99.5251 196.112 97.0906 196.112C95.474 196.113 93.8732 195.794 92.3796 195.174C90.886 194.554 89.5289 193.646 88.3858 192.5C87.2427 191.355 86.336 189.995 85.7175 188.498C85.0991 187.001 84.7809 185.397 84.7813 183.777V183.777Z" fill="#E0EDEC"/>
<path d="M235.539 171.265C247.754 163.144 256.193 154.349 254.386 151.62C252.58 148.891 241.212 153.262 228.997 161.383C216.781 169.503 208.342 178.299 210.149 181.027C211.955 183.756 223.323 179.385 235.539 171.265Z" fill="#888888"/>
<path d="M235.634 170.7C235.273 157.04 251.057 114.989 264.686 104.197" stroke="#4F898B" stroke-width="4.32857" stroke-linecap="round" stroke-linejoin="round"/>
<path d="M259.663 109.598C261.247 109.598 262.532 105.253 262.532 99.8935C262.532 94.5341 261.247 90.1895 259.663 90.1895C258.078 90.1895 256.793 94.5341 256.793 99.8935C256.793 105.253 258.078 109.598 259.663 109.598Z" fill="#4F898B"/>
<path d="M270.394 109.034C275.374 107.08 278.943 104.297 278.365 102.818C277.788 101.339 273.282 101.724 268.302 103.678C263.321 105.632 259.753 108.415 260.33 109.894C260.908 111.372 265.414 110.987 270.394 109.034Z" fill="#4F898B"/>
<path d="M265.571 116.021C270.829 115.038 274.855 112.976 274.565 111.415C274.274 109.853 269.776 109.385 264.519 110.368C259.261 111.351 255.235 113.414 255.525 114.975C255.816 116.536 260.314 117.005 265.571 116.021Z" fill="#4F898B"/>
<path d="M261.018 124.138C266.363 123.973 270.658 122.553 270.609 120.966C270.56 119.378 266.187 118.225 260.841 118.389C255.496 118.554 251.202 119.974 251.25 121.562C251.299 123.149 255.672 124.302 261.018 124.138Z" fill="#4F898B"/>
<path d="M257.757 131.028C263.105 131.028 267.441 129.74 267.441 128.152C267.441 126.564 263.105 125.276 257.757 125.276C252.409 125.276 248.073 126.564 248.073 128.152C248.073 129.74 252.409 131.028 257.757 131.028Z" fill="#4F898B"/>
<path d="M254.089 138.744C259.437 138.744 263.773 137.457 263.773 135.869C263.773 134.281 259.437 132.993 254.089 132.993C248.741 132.993 244.405 134.281 244.405 135.869C244.405 137.457 248.741 138.744 254.089 138.744Z" fill="#4F898B"/>
<path d="M255.342 115.188C256.9 114.897 257.368 110.39 256.387 105.121C255.406 99.8527 253.348 95.8179 251.79 96.1092C250.232 96.4006 249.764 100.908 250.745 106.176C251.726 111.445 253.784 115.479 255.342 115.188Z" fill="#4F898B"/>
<path d="M250.998 122.22C252.474 121.641 252.09 117.126 250.14 112.135C248.19 107.145 245.414 103.569 243.938 104.148C242.462 104.726 242.846 109.241 244.796 114.232C246.746 119.223 249.523 122.799 250.998 122.22Z" fill="#4F898B"/>
<path d="M248.08 128.998C249.369 128.075 247.894 123.791 244.784 119.431C241.675 115.07 238.109 112.284 236.819 113.207C235.53 114.131 237.005 118.414 240.115 122.775C243.224 127.135 246.79 129.921 248.08 128.998Z" fill="#4F898B"/>
<path d="M244.834 136.386C245.921 135.23 243.647 131.314 239.754 127.638C235.862 123.963 231.825 121.92 230.739 123.076C229.652 124.231 231.926 128.148 235.818 131.824C239.711 135.499 243.747 137.542 244.834 136.386Z" fill="#4F898B"/>
<path d="M233.747 171.421C232.783 161.02 214.275 136.193 201.836 131.562" stroke="#EBCACA" stroke-width="4.95714" stroke-linecap="round" stroke-linejoin="round"/>
<path fill-rule="evenodd" clip-rule="evenodd" d="M204.382 129.069L212.959 116.849L198.109 115.516L204.382 129.069Z" fill="#EBCACA"/>
<path fill-rule="evenodd" clip-rule="evenodd" d="M214.464 136.39L228.57 131.557L217.339 121.73L214.464 136.39Z" fill="#EBCACA"/>
<path fill-rule="evenodd" clip-rule="evenodd" d="M202.582 154.29L207.541 140.199L192.885 142.939L202.582 154.29Z" fill="#EBCACA"/>
<path fill-rule="evenodd" clip-rule="evenodd" d="M118.856 102.189C118.859 99.7502 119.583 97.3667 120.937 95.34C122.292 93.3133 124.215 91.7344 126.464 90.8028C128.714 89.8712 131.188 89.6289 133.575 90.1063C135.962 90.5838 138.154 91.7596 139.874 93.4852C141.595 95.2108 142.766 97.4087 143.24 99.8011C143.713 102.193 143.469 104.673 142.537 106.926C141.605 109.179 140.027 111.105 138.003 112.46C135.979 113.814 133.6 114.537 131.166 114.537C129.548 114.537 127.946 114.218 126.452 113.597C124.958 112.977 123.6 112.067 122.457 110.92C121.314 109.773 120.407 108.412 119.79 106.914C119.172 105.416 118.855 103.81 118.856 102.189V102.189Z" fill="#90BFBF"/>
<path d="M128.519 135.72L107.078 132.688" stroke="white" stroke-width="11.5929" stroke-linecap="round" stroke-linejoin="round"/>
<defs>
<filter id="filter0_d_728_2641" x="0.853794" y="0.691406" width="272.08" height="278.643" filterUnits="userSpaceOnUse" color-interpolation-filters="sRGB">
<feFlood flood-opacity="0" result="BackgroundImageFix"/>
<feColorMatrix in="SourceAlpha" type="matrix" values="0 0 0 0 0 0 0 0 0 0 0 0 0 0 0 0 0 0 127 0" result="hardAlpha"/>
<feOffset dy="2.85714"/>
<feGaussianBlur stdDeviation="21.4286"/>
<feComposite in2="hardAlpha" operator="out"/>
<feColorMatrix type="matrix" values="0 0 0 0 0.415686 0 0 0 0 0.647059 0 0 0 0 0.65098 0 0 0 0.25 0"/>
<feBlend mode="normal" in2="BackgroundImageFix" result="effect1_dropShadow_728_2641"/>
<feBlend mode="normal" in="SourceGraphic" in2="effect1_dropShadow_728_2641" result="shape"/>
</filter>
</defs>
</svg>
