<svg width="312" height="287" viewBox="0 0 312 287" fill="none" xmlns="http://www.w3.org/2000/svg">
<g filter="url(#filter0_d_728_2638)">
<path d="M240.523 76.0538C264.815 101.823 274.87 143.633 264.262 177.068C253.654 210.504 222.503 235.569 193.293 240.184C164.084 244.799 136.892 228.99 114.139 214.115C91.3869 199.241 73.1322 185.342 59.2306 160.226C45.3289 135.111 35.8889 98.8148 49.9423 75.4037C63.9958 51.9927 101.492 41.412 139.538 41.0003C177.584 40.5886 216.23 50.2882 240.523 76.0538Z" fill="white"/>
</g>
<path d="M232.973 232.98C265.483 232.98 291.837 206.657 291.837 174.187C291.837 141.716 265.483 115.394 232.973 115.394C200.464 115.394 174.109 141.716 174.109 174.187C174.109 206.657 200.464 232.98 232.973 232.98Z" stroke="#E7E7E7" stroke-width="1.76429" stroke-linecap="round" stroke-linejoin="round"/>
<path d="M106.641 73.9883L27.125 172.19L170.205 208.013L106.641 73.9883Z" stroke="#E7E7E7" stroke-width="2.18571" stroke-linecap="round" stroke-linejoin="round"/>
<path d="M139.076 130.196C178.904 131.532 181.197 206.175 176.525 213.816C171.854 221.457 114.465 218.763 106.811 208.872C99.1572 198.981 109.411 129.181 139.076 130.196Z" fill="#6AA5A6"/>
<path d="M135.2 145.847L157.287 177.971" stroke="white" stroke-width="5.71429" stroke-linecap="round" stroke-linejoin="round"/>
<path d="M149.856 118.297C160.769 118.297 169.615 109.461 169.615 98.5621C169.615 87.6628 160.769 78.8271 149.856 78.8271C138.944 78.8271 130.098 87.6628 130.098 98.5621C130.098 109.461 138.944 118.297 149.856 118.297Z" fill="#E0EDEC"/>
<path d="M148.527 96.6121C148.798 94.5935 148.256 92.8529 147.312 92.7265C146.368 92.6001 145.389 94.1349 145.117 96.1535C144.846 98.1721 145.392 99.9127 146.332 100.039C147.272 100.165 148.256 98.6452 148.527 96.6121Z" stroke="#4F898B" stroke-width="3.52143" stroke-linecap="round" stroke-linejoin="round"/>
<path d="M137.459 50.0317L140.081 79.8851L112.885 67.228L137.459 50.0317Z" fill="#4F898B"/>
<path d="M206.01 67.4689L193.959 67.4542C190.828 67.4504 188.287 69.9824 188.283 73.1095L188.268 85.1455C188.265 88.2727 190.8 90.8109 193.931 90.8147L205.981 90.8294C209.112 90.8332 211.653 88.3012 211.657 85.174L211.672 73.1381C211.676 70.0109 209.141 67.4727 206.01 67.4689Z" fill="#D1D1D1"/>
<path d="M211.682 72.0127C214.188 72.0127 216.219 69.9837 216.219 67.4807C216.219 64.9778 214.188 62.9487 211.682 62.9487C209.176 62.9487 207.145 64.9778 207.145 67.4807C207.145 69.9837 209.176 72.0127 211.682 72.0127Z" fill="#6AA5A6"/>
<path d="M198.442 74.1578L194.31 81.2862C194.153 81.5552 194.071 81.8606 194.07 82.1716C194.07 82.4826 194.151 82.7883 194.307 83.0578C194.462 83.3273 194.686 83.5511 194.956 83.7067C195.225 83.8623 195.531 83.9441 195.843 83.944H204.086C204.397 83.9439 204.703 83.8623 204.972 83.7071C205.242 83.552 205.466 83.3288 205.622 83.06C205.778 82.7912 205.86 82.4862 205.861 82.1755C205.862 81.8649 205.781 81.5594 205.626 81.2898L201.512 74.1614C201.357 73.892 201.133 73.6681 200.864 73.5123C200.595 73.3565 200.289 73.2743 199.978 73.2739C199.667 73.2736 199.361 73.3551 199.092 73.5102C198.822 73.6654 198.598 73.8887 198.442 74.1578V74.1578Z" fill="white"/>
<path fill-rule="evenodd" clip-rule="evenodd" d="M139.075 165.04C139.075 163.159 139.634 161.321 140.68 159.757C141.726 158.194 143.212 156.975 144.952 156.256C146.691 155.536 148.605 155.348 150.452 155.714C152.299 156.081 153.995 156.987 155.326 158.317C156.658 159.646 157.564 161.341 157.932 163.185C158.299 165.029 158.11 166.941 157.39 168.679C156.669 170.416 155.449 171.901 153.884 172.946C152.318 173.99 150.478 174.548 148.595 174.548C146.07 174.548 143.649 173.546 141.863 171.763C140.078 169.98 139.075 167.562 139.075 165.04V165.04Z" fill="#E0EDEC"/>
<path d="M184.982 198.241L154.25 203.657L165.097 158.157L195.828 152.74L184.982 198.241Z" fill="#D1D1D1"/>
<path d="M186.467 199.252L155.735 204.669L166.582 159.168L197.314 153.751L186.467 199.252Z" fill="#888888"/>
<path d="M167.421 157.843C167.351 157.592 167.316 157.333 167.316 157.073C167.316 156.502 167.486 155.944 167.804 155.468C168.122 154.993 168.573 154.623 169.102 154.404C169.63 154.186 170.212 154.129 170.773 154.24C171.334 154.352 171.85 154.627 172.254 155.031C172.659 155.435 172.934 155.949 173.046 156.51C173.157 157.07 173.1 157.651 172.881 158.179C172.662 158.707 172.291 159.158 171.816 159.476C171.34 159.793 170.781 159.962 170.209 159.962" stroke="#EBCACA" stroke-width="3.67143" stroke-linecap="round" stroke-linejoin="round"/>
<path d="M176.12 156.301C176.053 156.05 176.019 155.791 176.019 155.532C176.019 154.96 176.188 154.402 176.506 153.927C176.824 153.451 177.276 153.081 177.804 152.862C178.333 152.644 178.914 152.587 179.475 152.698C180.036 152.81 180.552 153.085 180.956 153.489C181.361 153.893 181.636 154.408 181.748 154.968C181.859 155.528 181.802 156.109 181.583 156.637C181.364 157.165 180.994 157.616 180.518 157.934C180.042 158.251 179.483 158.42 178.911 158.42" stroke="#EBCACA" stroke-width="3.67143" stroke-linecap="round" stroke-linejoin="round"/>
<path d="M183.992 154.957C183.922 154.707 183.886 154.448 183.887 154.188C183.887 153.617 184.056 153.058 184.374 152.583C184.692 152.108 185.144 151.738 185.672 151.519C186.201 151.301 186.782 151.243 187.343 151.355C187.904 151.466 188.42 151.741 188.824 152.145C189.229 152.549 189.504 153.064 189.616 153.625C189.728 154.185 189.67 154.766 189.451 155.294C189.232 155.822 188.862 156.273 188.386 156.59C187.91 156.908 187.351 157.077 186.779 157.077" stroke="#EBCACA" stroke-width="3.67143" stroke-linecap="round" stroke-linejoin="round"/>
<path d="M192.137 153.419C191.974 152.836 191.998 152.217 192.207 151.649C192.415 151.081 192.797 150.593 193.298 150.253C193.799 149.913 194.394 149.739 194.999 149.755C195.605 149.771 196.19 149.977 196.672 150.342C197.155 150.708 197.51 151.216 197.688 151.795C197.865 152.373 197.857 152.993 197.663 153.566C197.47 154.139 197.101 154.637 196.609 154.99C196.117 155.343 195.526 155.532 194.921 155.532" stroke="#EBCACA" stroke-width="3.67143" stroke-linecap="round" stroke-linejoin="round"/>
<path fill-rule="evenodd" clip-rule="evenodd" d="M185.4 178.199C185.4 176.319 185.959 174.48 187.005 172.917C188.051 171.353 189.538 170.134 191.277 169.415C193.017 168.695 194.931 168.507 196.777 168.874C198.624 169.24 200.32 170.146 201.651 171.476C202.983 172.806 203.889 174.5 204.257 176.344C204.624 178.189 204.436 180.1 203.715 181.838C202.994 183.575 201.774 185.06 200.209 186.105C198.643 187.15 196.803 187.707 194.92 187.707C192.395 187.707 189.974 186.705 188.189 184.922C186.403 183.139 185.4 180.721 185.4 178.199V178.199Z" fill="#E0EDEC"/>
<path d="M258.532 86.6235H231.386C230.324 86.6235 229.463 87.4837 229.463 88.5447V122.316C229.463 123.377 230.324 124.237 231.386 124.237H258.532C259.594 124.237 260.455 123.377 260.455 122.316V88.5447C260.455 87.4837 259.594 86.6235 258.532 86.6235Z" fill="#D1D1D1"/>
<path d="M235.201 95.2834C236.431 95.2834 237.428 94.2875 237.428 93.0589C237.428 91.8304 236.431 90.8345 235.201 90.8345C233.971 90.8345 232.974 91.8304 232.974 93.0589C232.974 94.2875 233.971 95.2834 235.201 95.2834Z" fill="white"/>
<path d="M240.407 93.0586H256.948" stroke="white" stroke-width="1.77143" stroke-linecap="round" stroke-linejoin="round"/>
<path d="M235.201 104.408C236.431 104.408 237.428 103.412 237.428 102.184C237.428 100.955 236.431 99.9595 235.201 99.9595C233.971 99.9595 232.974 100.955 232.974 102.184C232.974 103.412 233.971 104.408 235.201 104.408Z" fill="white"/>
<path d="M240.407 102.184H256.948" stroke="white" stroke-width="1.77143" stroke-linecap="round" stroke-linejoin="round"/>
<path d="M235.201 113.53C236.431 113.53 237.428 112.535 237.428 111.306C237.428 110.077 236.431 109.082 235.201 109.082C233.971 109.082 232.974 110.077 232.974 111.306C232.974 112.535 233.971 113.53 235.201 113.53Z" fill="white"/>
<path d="M240.407 111.306H256.948" stroke="white" stroke-width="1.77143" stroke-linecap="round" stroke-linejoin="round"/>
<defs>
<filter id="filter0_d_728_2638" x="0.146763" y="0.987792" width="311.173" height="285.726" filterUnits="userSpaceOnUse" color-interpolation-filters="sRGB">
<feFlood flood-opacity="0" result="BackgroundImageFix"/>
<feColorMatrix in="SourceAlpha" type="matrix" values="0 0 0 0 0 0 0 0 0 0 0 0 0 0 0 0 0 0 127 0" result="hardAlpha"/>
<feOffset dy="2.85714"/>
<feGaussianBlur stdDeviation="21.4286"/>
<feComposite in2="hardAlpha" operator="out"/>
<feColorMatrix type="matrix" values="0 0 0 0 0.415686 0 0 0 0 0.647059 0 0 0 0 0.65098 0 0 0 0.25 0"/>
<feBlend mode="normal" in2="BackgroundImageFix" result="effect1_dropShadow_728_2638"/>
<feBlend mode="normal" in="SourceGraphic" in2="effect1_dropShadow_728_2638" result="shape"/>
</filter>
</defs>
</svg>
