<svg width="240" height="257" viewBox="0 0 240 257" fill="none" xmlns="http://www.w3.org/2000/svg">
<g filter="url(#filter0_d_728_2639)">
<path d="M195.159 68.241C201.966 86.2003 186.931 112.158 177.321 133.422C167.71 154.686 163.557 171.183 148.715 186.297C133.873 201.41 108.346 215.166 87.8904 208.985C67.4351 202.804 51.9802 176.566 46.2897 148.918C40.5993 121.269 44.6403 92.1996 60.3619 72.2084C76.0834 52.2172 103.576 41.2854 131.644 40.796C159.711 40.3066 188.361 50.2843 195.159 68.241Z" fill="white"/>
</g>
<path d="M161.248 212.1C191.886 212.1 216.723 187.259 216.723 156.616C216.723 125.973 191.886 101.132 161.248 101.132C130.61 101.132 105.773 125.973 105.773 156.616C105.773 187.259 130.61 212.1 161.248 212.1Z" stroke="#E7E7E7" stroke-width="2.18571" stroke-linecap="round" stroke-linejoin="round"/>
<path d="M83.6874 24.5908L1.99805 125.614L148.987 162.456L83.6874 24.5908Z" stroke="#E7E7E7" stroke-width="2.95" stroke-linecap="round" stroke-linejoin="round"/>
<path d="M122.937 102.673C134.083 102.673 143.118 93.636 143.118 82.4888C143.118 71.3417 134.083 62.3052 122.937 62.3052C111.792 62.3052 102.757 71.3417 102.757 82.4888C102.757 93.636 111.792 102.673 122.937 102.673Z" fill="#E0EDEC"/>
<path d="M133.623 61.7715C131.278 69.0336 126.786 75.4142 120.742 80.0717C114.697 84.7293 107.383 87.4451 99.7637 87.861" stroke="#4F898B" stroke-width="4.72857" stroke-linecap="round" stroke-linejoin="round"/>
<path d="M136.88 78.7962C137.155 76.7314 136.605 74.947 135.643 74.8233C134.681 74.6995 133.678 76.264 133.403 78.3288C133.128 80.3936 133.678 82.178 134.64 82.3018C135.602 82.4255 136.605 80.861 136.88 78.7962Z" stroke="#4F898B" stroke-width="4.72857" stroke-linecap="round" stroke-linejoin="round"/>
<path d="M172.103 36.9112C176.136 36.9112 179.404 33.6417 179.404 29.6087C179.404 25.5756 176.136 22.3062 172.103 22.3062C168.071 22.3062 164.802 25.5756 164.802 29.6087C164.802 33.6417 168.071 36.9112 172.103 36.9112Z" stroke="#4F898B" stroke-width="6.77857" stroke-linecap="round" stroke-linejoin="round"/>
<path d="M57.003 53.7188L43.1865 60.0727L55.5983 68.8627L57.003 53.7188Z" stroke="#6AA5A6" stroke-width="7.87857" stroke-linecap="round" stroke-linejoin="round"/>
<path d="M198.574 66.2009L189.795 68.825C187.514 69.5069 186.218 71.9089 186.899 74.1902L189.523 82.9703C190.205 85.2516 192.606 86.5482 194.887 85.8664L203.666 83.2422C205.947 82.5604 207.243 80.1584 206.562 77.8771L203.938 69.097C203.256 66.8157 200.855 65.5191 198.574 66.2009Z" fill="#D1D1D1"/>
<path d="M202.702 68.4089C204.607 68.4089 206.152 66.864 206.152 64.9584C206.152 63.0527 204.607 61.5078 202.702 61.5078C200.797 61.5078 199.252 63.0527 199.252 64.9584C199.252 66.864 200.797 68.4089 202.702 68.4089Z" fill="#6AA5A6"/>
<path d="M194.525 72.7228L193.076 78.8239C193.022 79.0542 193.029 79.2946 193.097 79.5212C193.165 79.7478 193.292 79.9525 193.464 80.1149C193.636 80.2772 193.847 80.3915 194.077 80.4462C194.308 80.501 194.548 80.4943 194.775 80.4268L200.781 78.6314C201.009 78.5653 201.216 78.4401 201.38 78.2685C201.544 78.0969 201.66 77.8849 201.716 77.654C201.772 77.4232 201.765 77.1817 201.698 76.954C201.63 76.7264 201.504 76.5206 201.331 76.3576L196.773 72.0547C196.601 71.8898 196.389 71.7733 196.157 71.7172C195.926 71.661 195.683 71.6672 195.455 71.7351C195.226 71.803 195.02 71.9301 194.857 72.1036C194.693 72.2771 194.579 72.4907 194.525 72.7228Z" fill="white"/>
<path d="M98.8008 24.7394V34.4725C98.8008 34.8406 98.8977 35.2022 99.0817 35.521C99.2656 35.8398 99.5303 36.1045 99.8489 36.2887C100.168 36.4729 100.529 36.5699 100.897 36.5701C101.265 36.5703 101.627 36.4736 101.946 36.2898L110.377 31.4178C110.695 31.234 110.96 30.9695 111.144 30.6509C111.328 30.3324 111.425 29.971 111.425 29.6032C111.425 29.2353 111.328 28.874 111.144 28.5554C110.96 28.2369 110.695 27.9724 110.377 27.7886L101.946 22.9248C101.627 22.7411 101.266 22.6445 100.898 22.6445C100.53 22.6446 100.169 22.7414 99.8501 22.9253C99.5315 23.1091 99.2669 23.3735 99.0827 23.6919C98.8985 24.0103 98.8013 24.3716 98.8008 24.7394V24.7394Z" stroke="#EBCACA" stroke-width="7.19286" stroke-linecap="round" stroke-linejoin="round"/>
<path fill-rule="evenodd" clip-rule="evenodd" d="M180.114 124.297C180.114 121.458 180.956 118.682 182.533 116.322C184.11 113.961 186.352 112.121 188.974 111.035C191.597 109.948 194.483 109.664 197.267 110.218C200.051 110.772 202.608 112.139 204.616 114.146C206.623 116.154 207.99 118.712 208.544 121.496C209.097 124.281 208.813 127.167 207.727 129.79C206.641 132.413 204.801 134.655 202.441 136.232C200.08 137.81 197.305 138.652 194.467 138.652C190.66 138.652 187.01 137.139 184.318 134.447C181.626 131.755 180.114 128.104 180.114 124.297V124.297Z" fill="#E0EDEC"/>
<path fill-rule="evenodd" clip-rule="evenodd" d="M29.7432 124.297C29.7432 121.458 30.5849 118.682 32.162 116.322C33.7391 113.961 35.9806 112.121 38.6032 111.035C41.2258 109.948 44.1116 109.664 46.8958 110.218C49.6799 110.772 52.2373 112.139 54.2445 114.146C56.2517 116.154 57.6187 118.712 58.1725 121.496C58.7263 124.281 58.4421 127.167 57.3557 129.79C56.2694 132.413 54.4298 134.655 52.0696 136.232C49.7093 137.81 46.9344 138.652 44.0957 138.652C42.2109 138.652 40.3446 138.28 38.6032 137.559C36.8619 136.838 35.2797 135.78 33.9469 134.447C31.2553 131.755 29.7432 128.104 29.7432 124.297Z" fill="#E0EDEC"/>
<path d="M72.8945 123.255L117.112 221L165.913 124.564L72.8945 123.255Z" fill="#6AA5A6"/>
<path d="M99.4474 123.629C99.5134 124.481 99.5464 125.345 99.5464 126.213C99.5516 131.37 98.3511 136.456 96.0409 141.065C93.7307 145.675 90.3748 149.681 86.2412 152.762" stroke="#EBCACA" stroke-width="4.95714" stroke-linecap="round" stroke-linejoin="round"/>
<path d="M97.7539 178.208C104.15 176.855 110.802 177.423 116.877 179.84C122.951 182.257 128.175 186.416 131.894 191.793" stroke="#EBCACA" stroke-width="4.95714" stroke-linecap="round" stroke-linejoin="round"/>
<path d="M93.1738 168.095C100.69 163.814 109.582 162.641 117.951 164.828C126.321 167.014 133.503 172.386 137.966 179.797" stroke="#EBCACA" stroke-width="4.95714" stroke-linecap="round" stroke-linejoin="round"/>
<path d="M155.373 145.396C150.122 139.594 147.102 132.116 146.852 124.294" stroke="#EBCACA" stroke-width="4.95714" stroke-linecap="round" stroke-linejoin="round"/>
<path d="M134.384 170.652L145.96 147.777" stroke="white" stroke-width="11.5929" stroke-linecap="round" stroke-linejoin="round"/>
<defs>
<filter id="filter0_d_728_2639" x="0.983677" y="0.778808" width="238.746" height="255.435" filterUnits="userSpaceOnUse" color-interpolation-filters="sRGB">
<feFlood flood-opacity="0" result="BackgroundImageFix"/>
<feColorMatrix in="SourceAlpha" type="matrix" values="0 0 0 0 0 0 0 0 0 0 0 0 0 0 0 0 0 0 127 0" result="hardAlpha"/>
<feOffset dy="2.85714"/>
<feGaussianBlur stdDeviation="21.4286"/>
<feComposite in2="hardAlpha" operator="out"/>
<feColorMatrix type="matrix" values="0 0 0 0 0.415686 0 0 0 0 0.647059 0 0 0 0 0.65098 0 0 0 0.25 0"/>
<feBlend mode="normal" in2="BackgroundImageFix" result="effect1_dropShadow_728_2639"/>
<feBlend mode="normal" in="SourceGraphic" in2="effect1_dropShadow_728_2639" result="shape"/>
</filter>
</defs>
</svg>
