<svg width="360" height="546" viewBox="0 0 360 546" fill="none" xmlns="http://www.w3.org/2000/svg">
<g clip-path="url(#clip0_430_1011)">
<rect x="-24" y="1" width="82" height="82" rx="23" stroke="#B9E2E2" stroke-opacity="0.4" stroke-width="2"/>
<rect x="63" width="84" height="84" rx="24" fill="#EAB8B2"/>
<rect x="151" width="84" height="84" rx="24" fill="#F5C6A8"/>
<rect x="239" width="84" height="84" rx="24" fill="#F2E3B2"/>
<rect x="327" width="84" height="84" rx="24" fill="#A4D8D2"/>
<rect x="-25" y="92" width="84" height="84" rx="24" fill="#A3C6DB"/>
<rect x="63" y="92" width="84" height="84" rx="24" fill="#A8B9D8"/>
<rect x="151" y="92" width="84" height="84" rx="24" fill="#D5A6E2"/>
<rect x="240" y="93" width="82" height="82" rx="23" stroke="#B9E2E2" stroke-opacity="0.4" stroke-width="2"/>
<rect x="328" y="93" width="82" height="82" rx="23" stroke="#B9E2E2" stroke-opacity="0.4" stroke-width="2"/>
<rect x="-24" y="185" width="82" height="82" rx="23" stroke="#B9E2E2" stroke-opacity="0.4" stroke-width="2"/>
<rect x="64" y="185" width="82" height="82" rx="23" stroke="#B9E2E2" stroke-opacity="0.4" stroke-width="2"/>
<rect x="152" y="185" width="82" height="82" rx="23" stroke="#B9E2E2" stroke-opacity="0.4" stroke-width="2"/>
<rect x="240" y="185" width="82" height="82" rx="23" stroke="#B9E2E2" stroke-opacity="0.4" stroke-width="2"/>
<rect x="328" y="185" width="82" height="82" rx="23" stroke="#B9E2E2" stroke-opacity="0.4" stroke-width="2"/>
<rect x="-24" y="277" width="82" height="82" rx="23" stroke="#B9E2E2" stroke-opacity="0.4" stroke-width="2"/>
<rect x="64" y="277" width="82" height="82" rx="23" stroke="#B9E2E2" stroke-opacity="0.4" stroke-width="2"/>
<rect x="152" y="277" width="82" height="82" rx="23" stroke="#B9E2E2" stroke-opacity="0.4" stroke-width="2"/>
<rect x="240" y="277" width="82" height="82" rx="23" stroke="#B9E2E2" stroke-opacity="0.4" stroke-width="2"/>
<rect x="328" y="277" width="82" height="82" rx="23" stroke="#B9E2E2" stroke-opacity="0.4" stroke-width="2"/>
<rect x="-24" y="369" width="82" height="82" rx="23" stroke="#B9E2E2" stroke-opacity="0.4" stroke-width="2"/>
<rect x="64" y="369" width="82" height="82" rx="23" stroke="#B9E2E2" stroke-opacity="0.4" stroke-width="2"/>
<rect x="152" y="369" width="82" height="82" rx="23" stroke="#B9E2E2" stroke-opacity="0.4" stroke-width="2"/>
<rect x="240" y="369" width="82" height="82" rx="23" stroke="#B9E2E2" stroke-opacity="0.4" stroke-width="2"/>
<rect x="328" y="369" width="82" height="82" rx="23" stroke="#B9E2E2" stroke-opacity="0.4" stroke-width="2"/>
<rect x="-24" y="461" width="82" height="82" rx="23" stroke="#B9E2E2" stroke-opacity="0.4" stroke-width="2"/>
<rect x="64" y="461" width="82" height="82" rx="23" stroke="#B9E2E2" stroke-opacity="0.4" stroke-width="2"/>
<rect x="152" y="461" width="82" height="82" rx="23" stroke="#B9E2E2" stroke-opacity="0.4" stroke-width="2"/>
<rect x="240" y="461" width="82" height="82" rx="23" stroke="#B9E2E2" stroke-opacity="0.4" stroke-width="2"/>
<rect x="328" y="461" width="82" height="82" rx="23" stroke="#B9E2E2" stroke-opacity="0.4" stroke-width="2"/>
</g>
<defs>
<clipPath id="clip0_430_1011">
<rect width="360" height="546" fill="white"/>
</clipPath>
</defs>
</svg>
