<svg width="455" height="110" viewBox="0 0 455 110" fill="none" xmlns="http://www.w3.org/2000/svg">
<g clip-path="url(#clip0_382_900)">
<path d="M442.858 97.4104C437.408 97.4104 433.358 95.9344 430.709 92.9824C428.06 90.0305 426.735 85.5268 426.735 79.4714V46.2048H417.879L417.993 37.5759H423.556C425.449 37.5759 426.811 37.2353 427.644 36.5541C428.552 35.8729 429.082 34.7375 429.233 33.1479L430.369 24.292H436.727V37.5759H453.644V46.3183H436.727V79.2444C436.727 82.272 437.408 84.4671 438.77 85.8296C440.209 87.1163 442.252 87.7597 444.901 87.7597C446.34 87.7597 447.816 87.5705 449.329 87.192C450.919 86.8136 452.471 86.0566 453.984 84.9213V95.2532C451.789 96.0858 449.746 96.6535 447.853 96.9563C446.037 97.259 444.372 97.4104 442.858 97.4104Z" fill="#0D6986"/>
<path d="M396.307 96.276V37.5769H406.639V96.276H396.307ZM401.53 27.3585C399.108 27.3585 397.291 26.8665 396.08 25.8825C394.869 24.8985 394.264 23.4225 394.264 21.4545C394.264 19.4865 394.869 18.0105 396.08 17.0265C397.291 16.0425 399.07 15.5505 401.417 15.5505C403.839 15.5505 405.655 16.0425 406.866 17.0265C408.077 18.0105 408.683 19.4865 408.683 21.4545C408.683 23.3468 408.077 24.8228 406.866 25.8825C405.655 26.8665 403.877 27.3585 401.53 27.3585Z" fill="#0D6986"/>
<path d="M357.546 97.7518C353.761 97.7518 350.507 96.9949 347.782 95.4811C345.132 93.9673 342.975 91.9236 341.31 89.35C339.72 86.7008 338.509 83.711 337.677 80.3805H335.86L336.428 96.2759H327.118V67.3237V16.7993H337.563V35.1925C337.563 37.1604 337.45 39.242 337.223 41.437C337.071 43.5564 336.806 45.7515 336.428 48.0222C336.125 50.293 335.784 52.4881 335.406 54.6074H337.45C338.282 51.4284 339.493 48.4385 341.083 45.6379C342.672 42.8373 344.792 40.5666 347.441 38.8257C350.166 37.0848 353.534 36.2143 357.546 36.2143C362.542 36.2143 366.78 37.5389 370.262 40.1881C373.82 42.7617 376.545 46.357 378.437 50.9742C380.329 55.5914 381.275 60.9656 381.275 67.0966C381.275 73.0006 380.329 78.2612 378.437 82.8784C376.62 87.4956 373.933 91.1288 370.376 93.778C366.894 96.4272 362.617 97.7518 357.546 97.7518ZM355.048 88.6688C358.303 88.6688 361.066 87.7984 363.336 86.0574C365.607 84.3165 367.348 81.8187 368.559 78.5639C369.846 75.3092 370.489 71.5246 370.489 67.2102C370.489 62.9714 369.884 59.2246 368.673 55.9699C367.461 52.6395 365.721 50.0281 363.45 48.1358C361.179 46.1678 358.378 45.1838 355.048 45.1838C352.626 45.1838 350.469 45.6758 348.576 46.6598C346.684 47.5681 345.019 48.817 343.581 50.4065C342.218 51.9961 341.083 53.737 340.175 55.6293C339.266 57.5216 338.585 59.4139 338.131 61.3062C337.677 63.1985 337.45 64.9394 337.45 66.5289V67.8914C337.45 70.1621 337.828 72.5086 338.585 74.9307C339.418 77.3529 340.591 79.6236 342.105 81.743C343.619 83.7867 345.473 85.4519 347.668 86.7387C349.863 88.0254 352.323 88.6688 355.048 88.6688Z" fill="#0D6986"/>
<path d="M281.769 96.2749V64.4843V37.5758H291.079L290.17 58.0127H292.101C292.782 53.5468 293.841 49.6866 295.28 46.4318C296.718 43.1771 298.61 40.6414 300.956 38.8248C303.379 37.0082 306.368 36.0999 309.926 36.0999C310.683 36.0999 311.553 36.1755 312.537 36.3269C313.521 36.4026 314.657 36.6675 315.943 37.1217L315.376 47.9078C314.24 47.4536 313.105 47.1509 311.97 46.9995C310.834 46.7724 309.737 46.6589 308.677 46.6589C305.725 46.6589 303.152 47.605 300.956 49.4973C298.837 51.3896 297.058 53.9632 295.62 57.2179C294.182 60.397 293.009 63.9923 292.101 68.004V96.2749H281.769Z" fill="#0D6986"/>
<path fill-rule="evenodd" clip-rule="evenodd" d="M206.274 95.2643C205.902 96.5661 205.704 97.5819 205.632 98.3316C206.011 98.1308 206.47 97.8508 207.014 97.4715C207.94 96.8258 208.996 95.973 210.166 94.9216C211.746 96.0824 213.434 97.1006 215.228 97.9746C213.433 99.6744 211.763 101.08 210.262 102.127C209.006 103.004 207.724 103.732 206.483 104.12C205.289 104.492 203.578 104.709 202.049 103.686C200.246 102.48 199.93 100.401 199.923 98.9956C199.915 97.447 200.265 95.6335 200.815 93.7067C201.328 91.9086 202.059 89.8646 202.981 87.6216C203.462 88.298 203.965 88.9559 204.49 89.5951L204.506 89.6143L204.522 89.6332C205.366 90.6325 206.257 91.5719 207.194 92.451C206.826 93.4669 206.519 94.4067 206.274 95.2643ZM205.649 99.4856C205.649 99.4866 205.644 99.475 205.638 99.4476C205.647 99.471 205.65 99.4847 205.649 99.4856ZM204.582 98.7537C204.565 98.7563 204.557 98.7566 204.557 98.7561C204.558 98.7556 204.566 98.7543 204.582 98.7537Z" fill="#0D6986"/>
<path d="M212.952 92.262C214.477 93.3283 216.113 94.2495 217.859 95.0256C217.936 95.0593 218.014 95.0927 218.091 95.1258C218.428 94.7762 218.768 94.4185 219.11 94.0531C220.895 92.1503 222.785 90.009 224.75 87.6618C224.021 87.4281 223.314 87.1578 222.628 86.8509C221.528 86.3457 220.493 85.7472 219.522 85.0554C217.937 86.9188 216.413 88.63 214.969 90.17C214.273 90.9121 213.6 91.6098 212.952 92.262Z" fill="#0D6986"/>
<path d="M221.952 82.1369C226.696 76.3256 231.875 69.3232 237.053 61.587C241.325 55.2024 245.135 49.0069 248.339 43.3264C248.519 43.72 248.693 44.1259 248.861 44.5443L248.869 44.5648C249.611 46.39 250.196 48.4456 250.607 50.7439C247.948 55.2342 244.982 59.9454 241.77 64.7442C236.884 72.0457 231.969 78.7452 227.375 84.4608C226.239 84.1992 225.179 83.8447 224.191 83.404C223.405 83.0417 222.659 82.6201 221.952 82.1369Z" fill="#0D6986"/>
<path d="M253.365 45.9694C253.072 44.9856 252.742 44.042 252.375 43.1388C251.831 41.7795 251.216 40.5152 250.53 39.3457C252.281 36.0821 253.799 33.0337 255.053 30.2719C255.237 29.8677 255.414 29.4708 255.585 29.0812C255.923 29.4422 256.253 29.8136 256.575 30.1955C257.64 31.4235 258.615 32.7498 259.503 34.1746C257.814 37.763 255.749 41.7366 253.365 45.9694Z" fill="#0D6986"/>
<path fill-rule="evenodd" clip-rule="evenodd" d="M261.326 30.1048C262.743 26.7586 263.774 23.7885 264.312 21.3604C264.643 19.8652 264.827 18.4017 264.712 17.1067C264.601 15.8613 264.149 14.1967 262.62 13.1734C260.905 12.0259 258.971 12.4282 257.705 12.9061C256.336 13.4225 254.882 14.339 253.418 15.4548C252.002 16.5341 250.446 17.9026 248.782 19.5176C250.582 20.3688 252.276 21.3714 253.861 22.5236C254.95 21.5148 255.953 20.6604 256.86 19.9695C257.743 19.2959 258.468 18.8293 259.037 18.5278C258.996 18.9544 258.912 19.4861 258.769 20.1334C258.458 21.5373 257.917 23.265 257.15 25.2806C257.953 26.0518 258.72 26.87 259.451 27.7349C260.108 28.4944 260.733 29.2846 261.326 30.1048ZM260.112 18.1032C260.111 18.1042 260.099 18.1063 260.076 18.1068C260.101 18.1025 260.113 18.1023 260.112 18.1032ZM259.026 17.3955C259.021 17.381 259.019 17.3729 259.019 17.3724C259.02 17.3719 259.022 17.3791 259.026 17.3955Z" fill="#0D6986"/>
<path d="M251.111 25.2131C249.565 24.1434 247.904 23.2307 246.13 22.4749C246.068 22.4486 246.007 22.4226 245.945 22.3967C244.987 23.4077 244.004 24.4838 242.999 25.6182L247.248 29.3826C248.604 27.852 249.896 26.4592 251.111 25.2131Z" fill="#0D6986"/>
<path d="M204.791 83.4902C205.45 82.0635 206.169 80.5792 206.942 79.0463L212.011 81.6013C210.729 84.1458 209.626 86.5017 208.713 88.6334C208.267 88.1698 207.834 87.6891 207.414 87.1915C206.46 86.0322 205.586 84.7985 204.791 83.4902Z" fill="#0D6986"/>
<path d="M221.002 96.1863C224.392 97.229 228.151 97.7503 232.28 97.7503C237.73 97.7503 242.498 96.842 246.586 95.0254C250.749 93.2088 254.231 90.6352 257.031 87.3048C259.908 83.8987 262.065 79.8491 263.503 75.1562C265.017 70.3876 265.774 65.0892 265.774 59.2609C265.774 53.0542 264.979 47.5287 263.389 42.6844C262.763 40.7451 262.03 38.9233 261.192 37.2192C259.273 41.153 256.96 45.4666 254.323 50.0178C254.842 52.8936 255.101 56.0503 255.101 59.488C255.101 65.6948 254.193 70.9932 252.376 75.3833C250.635 79.6978 248.062 83.0282 244.656 85.3747C241.325 87.6454 237.238 88.7808 232.394 88.7808C230.797 88.7808 229.273 88.6565 227.823 88.408C225.442 91.2916 223.152 93.9031 221.002 96.1863Z" fill="#0D6986"/>
<path d="M210.694 90.5071C209.526 89.5012 208.433 88.396 207.415 87.1913C204.615 83.7851 202.495 79.7356 201.057 75.0427C199.619 70.2741 198.9 64.9378 198.9 59.0339C198.9 50.405 200.338 43.2142 203.214 37.4617C206.091 31.6334 210.064 27.2432 215.136 24.2913C220.207 21.3393 225.96 19.8633 232.394 19.8633C237.465 19.8633 242.044 20.7337 246.132 22.4747C248.817 23.6182 251.24 25.121 253.402 26.9831C252.181 29.85 250.608 33.1214 248.727 36.6938C247.499 35.1374 246.104 33.8038 244.542 32.6931C241.136 30.2709 237.011 29.0599 232.167 29.0599C227.549 29.0599 223.538 30.2331 220.131 32.5795C216.725 34.926 214.114 38.3321 212.297 42.7979C210.481 47.2638 209.572 52.7514 209.572 59.2609C209.572 63.9538 210.064 68.1547 211.048 71.8636C212.108 75.4969 213.584 78.6002 215.476 81.1738C216.061 81.916 216.683 82.6047 217.341 83.24C214.947 86.0542 212.709 88.4985 210.694 90.5071Z" fill="#0D6986"/>
<path d="M237.881 55.1498C237.832 55.1061 237.781 55.0632 237.73 55.0213C236.518 54.0373 234.702 53.5453 232.28 53.5453C229.933 53.5453 228.155 54.0373 226.943 55.0213C225.732 56.0053 225.127 57.4813 225.127 59.4493C225.127 61.4173 225.732 62.8933 226.943 63.8773C227.924 64.6737 229.301 65.1479 231.074 65.2996C232.276 63.5825 233.485 61.8165 234.696 60.0073C235.79 58.3719 236.853 56.751 237.881 55.1498Z" fill="#0D6986"/>
<path fill-rule="evenodd" clip-rule="evenodd" d="M258.92 18.5912C257.671 19.2771 255.963 20.5759 253.849 22.5347L249.99 18.3707C252.233 16.2927 254.338 14.6307 256.187 13.6152C257.108 13.1096 258.107 12.6846 259.125 12.5123C260.16 12.3371 261.453 12.3914 262.621 13.1731C263.904 14.0318 264.43 15.3558 264.626 16.454C264.822 17.5492 264.76 18.7468 264.583 19.921C264.226 22.2864 263.295 25.2409 261.965 28.5566C258.27 37.7705 251.031 50.9065 241.771 64.7439C231.955 79.4118 221.99 91.6979 214.738 98.4348C212.482 100.53 210.365 102.206 208.507 103.23C207.583 103.74 206.58 104.169 205.559 104.344C204.521 104.522 203.223 104.471 202.05 103.686C199.981 102.301 199.846 99.7802 199.949 98.2039C200.068 96.3619 200.62 94.138 201.441 91.7061L206.82 93.5223C206.113 95.6167 205.74 97.218 205.633 98.3312C205.676 98.3085 205.72 98.2845 205.766 98.2594C207.025 97.5647 208.746 96.2519 210.874 94.2754C217.665 87.9677 227.348 76.0902 237.053 61.5867C246.197 47.9233 253.204 35.1521 256.696 26.4436C257.965 23.2807 258.709 20.7999 258.969 19.0753C258.999 18.8739 259.022 18.6917 259.038 18.5277C258.999 18.5479 258.96 18.5691 258.92 18.5912ZM205.647 99.4707C205.646 99.4715 205.642 99.4613 205.636 99.4377C205.645 99.4581 205.647 99.4699 205.647 99.4707Z" fill="#0D6986"/>
<path fill-rule="evenodd" clip-rule="evenodd" d="M23.1856 52.2129C17.5849 55.0531 12.8769 57.8973 9.3452 60.6532C6.90807 62.5549 4.82263 64.5737 3.42634 66.698C2.03717 68.8115 1.01433 71.5421 1.77239 74.4901C2.8802 78.7981 7.00254 80.8767 10.5472 81.9449C14.4073 83.1082 19.4426 83.6544 25.2029 83.7402C41.7291 83.9863 66.4476 80.4516 93.2337 73.5636C95.1149 73.0798 96.9783 72.5868 98.822 72.0853C100.64 71.5907 101.931 69.9785 102.016 68.096L102.761 51.5606L117.032 75.8209C117.809 77.1428 119.227 77.9556 120.761 77.9587C122.294 77.9618 123.716 77.1547 124.498 75.836L133.383 60.8707C146.517 55.7965 157.347 50.4653 164.381 45.4616C167.372 43.3347 169.903 41.1091 171.611 38.8064C173.278 36.558 174.644 33.5491 173.796 30.2543C173.113 27.598 171.238 25.7854 169.256 24.6013C167.289 23.4267 164.866 22.6446 162.264 22.1105C158.615 21.3613 154.129 21.0058 149.022 20.9924C149.501 22.2948 149.911 23.6285 150.248 24.9885L150.249 24.9933C150.633 26.555 150.926 28.1229 151.134 29.694C154.891 29.786 158.041 30.0975 160.52 30.6064C162.625 31.0384 164.001 31.5651 164.808 32.0472C165.082 32.2107 165.246 32.3406 165.34 32.4284C165.276 32.6291 165.104 33.0199 164.644 33.6401C163.709 34.9014 162.001 36.5118 159.354 38.3943C152.954 42.9472 142.392 48.1715 128.883 53.3073C127.967 53.6556 127.195 54.3041 126.695 55.147L120.787 65.0985L102.825 34.5631C101.851 32.9082 99.9055 32.0904 98.0421 32.5531C96.1787 33.0157 94.8413 34.6486 94.7549 36.5666L93.4946 64.5334C92.6912 64.7453 91.8842 64.9554 91.0737 65.1638C64.6807 71.9508 40.7906 75.2983 25.3321 75.0681C19.909 74.9874 15.7931 74.4675 13.0497 73.6408C11.1507 73.0685 10.4563 72.5296 10.2302 72.31C10.2825 72.1502 10.4025 71.8748 10.6739 71.4619C11.339 70.4499 12.61 69.1066 14.6808 67.4908C17.3203 65.4311 20.9229 63.1855 25.3856 60.8379C24.8142 59.297 24.3249 57.7168 23.926 56.0967L23.9248 56.092C23.6099 54.8068 23.3638 53.512 23.1856 52.2129ZM165.441 32.5365C165.448 32.5503 165.454 32.5567 165.454 32.5567C165.454 32.5567 165.453 32.5549 165.452 32.5517C165.449 32.5483 165.446 32.5432 165.441 32.5365ZM165.375 32.2691C165.375 32.2691 165.375 32.2752 165.375 32.2795C165.376 32.2683 165.376 32.263 165.376 32.263C165.376 32.263 165.375 32.2651 165.375 32.2691Z" fill="#DAA4A4"/>
<path d="M82.1474 20.4862C86.134 11.1252 94.4995 4.10809 105.369 1.4319C114.023 -0.688644 123.165 0.710282 130.789 5.32177C138.413 9.93325 143.897 17.3807 146.037 26.0302C147.223 30.8483 147.446 35.7764 146.932 40.7073C144.105 42.1538 140.935 43.644 137.449 45.1557C138.745 39.3634 138.967 33.5934 137.615 28.1038C136.027 21.687 131.958 16.1622 126.302 12.741C120.645 9.31974 113.863 8.28131 107.442 9.85341C97.2047 12.3741 89.9482 19.9276 88.5189 29.5856C88.3918 30.436 88.0148 31.2294 87.4358 31.8651C86.8567 32.5007 86.1017 32.9498 85.2668 33.1554C84.4319 33.361 83.5547 33.3137 82.7467 33.0196C81.9387 32.7255 81.2364 32.1978 80.729 31.5036C74.9829 23.6291 65.045 20.2925 54.8076 22.8132C48.3909 24.402 42.8661 28.4707 39.4448 34.127C36.0236 39.7834 34.9852 46.5656 36.5573 52.9865C38.0559 59.0729 41.4212 64.5645 45.8893 69.4676C42.2242 69.9001 38.7593 70.2225 35.5275 70.4349C32.107 65.7703 29.5123 60.6509 28.1358 55.0601C26.0152 46.4058 27.4141 37.2637 32.0256 29.6395C36.6371 22.0153 44.0845 16.5317 52.7341 14.3917C63.6031 11.7155 74.2702 14.0463 82.1474 20.4862Z" fill="#90BFBF"/>
<path d="M51.9544 86.1865C73.0329 101.364 100.091 108.504 101.81 108.935C102.504 109.114 103.232 109.118 103.928 108.946C104.624 108.775 105.267 108.433 105.799 107.952C107.157 106.742 128.894 86.8595 140.309 62.7771C139.012 63.3109 137.691 63.8417 136.348 64.3689L128.226 78.0493C126.661 80.6867 123.818 82.301 120.751 82.2948C119.789 82.2928 118.851 82.1317 117.967 81.83C111.231 90.4085 104.707 97.0066 101.705 99.9168C95.8351 98.1896 79.6356 92.9811 64.7551 84.197C60.3418 84.974 56.063 85.6383 51.9544 86.1865Z" fill="#90BFBF"/>
</g>
<defs>
<clipPath id="clip0_382_900">
<rect width="454.65" height="110" fill="white" transform="translate(0.140137)"/>
</clipPath>
</defs>
</svg>
