<svg width="92" height="22" viewBox="0 0 92 22" fill="none" xmlns="http://www.w3.org/2000/svg">
<g clip-path="url(#clip0_342_1638)">
<path d="M89.0787 19.4821C87.9887 19.4821 87.1788 19.1869 86.649 18.5965C86.1191 18.0061 85.8542 17.1054 85.8542 15.8943V9.24096H84.083L84.1057 7.51519H85.2184C85.5968 7.51519 85.8693 7.44706 86.0359 7.31082C86.2175 7.17457 86.3235 6.9475 86.3538 6.62959L86.5808 4.8584H87.8525V7.51519H91.2359V9.26367H87.8525V15.8489C87.8525 16.4544 87.9887 16.8934 88.2612 17.1659C88.5488 17.4233 88.9576 17.5519 89.4874 17.5519C89.775 17.5519 90.0702 17.5141 90.373 17.4384C90.6909 17.3627 91.0013 17.2113 91.304 16.9843V19.0506C90.865 19.2172 90.4563 19.3307 90.0778 19.3913C89.7145 19.4518 89.3814 19.4821 89.0787 19.4821Z" fill="#0D6986"/>
<path d="M79.7686 19.2552V7.51538H81.835V19.2552H79.7686ZM80.8131 5.4717C80.3287 5.4717 79.9654 5.3733 79.7232 5.1765C79.481 4.9797 79.3599 4.6845 79.3599 4.2909C79.3599 3.8973 79.481 3.6021 79.7232 3.40531C79.9654 3.20851 80.3212 3.11011 80.7904 3.11011C81.2749 3.11011 81.6382 3.20851 81.8804 3.40531C82.1226 3.6021 82.2437 3.8973 82.2437 4.2909C82.2437 4.66936 82.1226 4.96456 81.8804 5.1765C81.6382 5.3733 81.2824 5.4717 80.8131 5.4717Z" fill="#0D6986"/>
<path d="M72.0163 19.5504C71.2594 19.5504 70.6084 19.399 70.0634 19.0962C69.5336 18.7935 69.1022 18.3847 68.7691 17.87C68.4512 17.3402 68.209 16.7422 68.0425 16.0761H67.6791L67.7927 19.2552H65.9307V13.4647V3.35986H68.0198V7.03849C68.0198 7.43209 67.9971 7.8484 67.9516 8.28741C67.9214 8.71128 67.8684 9.1503 67.7927 9.60445C67.7321 10.0586 67.664 10.4976 67.5883 10.9215H67.9971C68.1636 10.2857 68.4058 9.68771 68.7237 9.12759C69.0416 8.56747 69.4655 8.11332 69.9953 7.76513C70.5403 7.41695 71.214 7.24286 72.0163 7.24286C73.0154 7.24286 73.8632 7.50778 74.5595 8.03763C75.2711 8.55233 75.816 9.2714 76.1945 10.1948C76.573 11.1183 76.7622 12.1931 76.7622 13.4193C76.7622 14.6001 76.573 15.6522 76.1945 16.5757C75.8312 17.4991 75.2938 18.2258 74.5823 18.7556C73.8859 19.2854 73.0306 19.5504 72.0163 19.5504ZM71.5167 17.7338C72.1677 17.7338 72.7202 17.5597 73.1744 17.2115C73.6285 16.8633 73.9767 16.3637 74.2189 15.7128C74.4763 15.0618 74.605 14.3049 74.605 13.442C74.605 12.5943 74.4839 11.8449 74.2416 11.194C73.9994 10.5279 73.6512 10.0056 73.1971 9.62716C72.7429 9.23356 72.1828 9.03676 71.5167 9.03676C71.0323 9.03676 70.6009 9.13516 70.2224 9.33196C69.8439 9.51362 69.5109 9.7634 69.2233 10.0813C68.9508 10.3992 68.7237 10.7474 68.542 11.1259C68.3604 11.5043 68.2241 11.8828 68.1333 12.2612C68.0425 12.6397 67.9971 12.9879 67.9971 13.3058V13.5783C67.9971 14.0324 68.0727 14.5017 68.2241 14.9861C68.3907 15.4706 68.6253 15.9247 68.9281 16.3486C69.2308 16.7573 69.6017 17.0904 70.0407 17.3477C70.4797 17.6051 70.9717 17.7338 71.5167 17.7338Z" fill="#0D6986"/>
<path d="M56.8608 19.255V12.8969V7.51517H58.7229L58.5412 11.6025H58.9272C59.0635 10.7094 59.2754 9.93731 59.563 9.28636C59.8507 8.63541 60.2291 8.12827 60.6984 7.76495C61.1828 7.40163 61.7808 7.21997 62.4923 7.21997C62.6437 7.21997 62.8178 7.23511 63.0146 7.26539C63.2114 7.28052 63.4385 7.33351 63.6958 7.42434L63.5823 9.58156C63.3552 9.49073 63.1281 9.43018 62.9011 9.3999C62.674 9.35448 62.4545 9.33178 62.2425 9.33178C61.6521 9.33178 61.1374 9.52101 60.6984 9.89947C60.2745 10.2779 59.9188 10.7926 59.6312 11.4436C59.3435 12.0794 59.1089 12.7985 58.9272 13.6008V19.255H56.8608Z" fill="#0D6986"/>
<path fill-rule="evenodd" clip-rule="evenodd" d="M41.7619 19.0529C41.6876 19.3132 41.648 19.5164 41.6336 19.6663C41.7093 19.6262 41.8012 19.5702 41.91 19.4943C42.0951 19.3652 42.3062 19.1946 42.5404 18.9843C42.8564 19.2165 43.194 19.4201 43.5527 19.5949C43.1938 19.9349 42.8597 20.2161 42.5596 20.4255C42.3084 20.6007 42.0519 20.7464 41.8037 20.8239C41.565 20.8984 41.2228 20.9419 40.9169 20.7372C40.5564 20.4959 40.4931 20.0802 40.4917 19.7991C40.4902 19.4894 40.5601 19.1267 40.6701 18.7413C40.7727 18.3817 40.9189 17.9729 41.1033 17.5243C41.1995 17.6596 41.3001 17.7912 41.4052 17.919L41.4083 17.9229L41.4115 17.9266C41.5803 18.1265 41.7585 18.3144 41.946 18.4902C41.8723 18.6934 41.8108 18.8813 41.7619 19.0529ZM41.637 19.8971C41.6368 19.8973 41.6359 19.895 41.6347 19.8895C41.6365 19.8942 41.6371 19.8969 41.637 19.8971ZM41.4235 19.7507C41.4201 19.7513 41.4185 19.7513 41.4186 19.7512C41.4187 19.7511 41.4204 19.7509 41.4235 19.7507Z" fill="#0D6986"/>
<path d="M43.0975 18.4524C43.4025 18.6657 43.7297 18.8499 44.0789 19.0051C44.0944 19.0119 44.1099 19.0185 44.1254 19.0252C44.1927 18.9552 44.2607 18.8837 44.3292 18.8106C44.686 18.4301 45.064 18.0018 45.4572 17.5324C45.3114 17.4856 45.1699 17.4316 45.0327 17.3702C44.8128 17.2691 44.6057 17.1494 44.4115 17.0111C44.0945 17.3838 43.7898 17.726 43.501 18.034C43.3618 18.1824 43.2272 18.322 43.0975 18.4524Z" fill="#0D6986"/>
<path d="M44.8976 16.4274C45.8463 15.2651 46.8822 13.8646 47.9176 12.3174C48.7721 11.0405 49.5341 9.80139 50.1748 8.66528C50.211 8.74401 50.2458 8.82519 50.2793 8.90887L50.2809 8.91296C50.4294 9.27801 50.5463 9.68913 50.6285 10.1488C50.0967 11.0468 49.5035 11.9891 48.8612 12.9488C47.884 14.4091 46.9009 15.749 45.9822 16.8922C45.7549 16.8398 45.5429 16.7689 45.3452 16.6808C45.188 16.6083 45.0389 16.524 44.8976 16.4274Z" fill="#0D6986"/>
<path d="M51.1802 9.19387C51.1216 8.99712 51.0555 8.80841 50.982 8.62775C50.8733 8.3559 50.7503 8.10303 50.6131 7.86915C50.9633 7.21642 51.2669 6.60674 51.5178 6.05438C51.5545 5.97354 51.5899 5.89415 51.6242 5.81624C51.6917 5.88843 51.7577 5.96272 51.8222 6.03909C52.0351 6.28469 52.2302 6.54997 52.4077 6.83492C52.0699 7.5526 51.6568 8.34732 51.1802 9.19387Z" fill="#0D6986"/>
<path fill-rule="evenodd" clip-rule="evenodd" d="M52.7724 6.02097C53.0557 5.35172 53.2619 4.7577 53.3694 4.27208C53.4356 3.97305 53.4725 3.68034 53.4495 3.42135C53.4273 3.17226 53.337 2.83934 53.0312 2.63468C52.6882 2.40518 52.3014 2.48565 52.0481 2.58122C51.7743 2.68451 51.4835 2.86779 51.1907 3.09096C50.9076 3.30683 50.5963 3.58051 50.2634 3.90353C50.6236 4.07376 50.9623 4.27429 51.2792 4.50472C51.4971 4.30296 51.6978 4.13208 51.8791 3.9939C52.0558 3.85919 52.2008 3.76587 52.3145 3.70556C52.3063 3.79087 52.2896 3.89722 52.2609 4.02667C52.1987 4.30745 52.0905 4.65299 51.9372 5.05611C52.0977 5.21036 52.2511 5.37401 52.3974 5.54698C52.5288 5.69889 52.6538 5.85693 52.7724 6.02097ZM52.5295 3.62064C52.5294 3.62083 52.5269 3.62126 52.5223 3.62136C52.5273 3.6205 52.5296 3.62045 52.5295 3.62064ZM52.3124 3.4791C52.3113 3.47621 52.3109 3.47457 52.311 3.47447C52.3111 3.47438 52.3116 3.47583 52.3124 3.4791Z" fill="#0D6986"/>
<path d="M50.7294 5.04262C50.4201 4.82869 50.088 4.64614 49.7331 4.49497C49.7208 4.48972 49.7084 4.48451 49.6961 4.47934C49.5046 4.68155 49.3079 4.89676 49.1069 5.12365L49.9568 5.87653C50.2279 5.5704 50.4863 5.29184 50.7294 5.04262Z" fill="#0D6986"/>
<path d="M41.4653 16.698C41.5972 16.4127 41.7409 16.1158 41.8954 15.8093L42.9093 16.3203C42.6528 16.8292 42.4322 17.3003 42.2497 17.7267C42.1605 17.634 42.0739 17.5378 41.9898 17.4383C41.7992 17.2064 41.6244 16.9597 41.4653 16.698Z" fill="#0D6986"/>
<path d="M44.7074 19.2373C45.3855 19.4458 46.1374 19.5501 46.9631 19.5501C48.0531 19.5501 49.0068 19.3684 49.8243 19.0051C50.6569 18.6418 51.3533 18.127 51.9134 17.461C52.4887 16.7797 52.9201 15.9698 53.2077 15.0312C53.5105 14.0775 53.6619 13.0178 53.6619 11.8522C53.6619 10.6108 53.5029 9.50574 53.185 8.53688C53.0597 8.14901 52.9132 7.78467 52.7456 7.44384C52.3617 8.2306 51.8991 9.09332 51.3718 10.0036C51.4755 10.5787 51.5274 11.2101 51.5274 11.8976C51.5274 13.139 51.3457 14.1986 50.9824 15.0767C50.6342 15.9396 50.1195 16.6056 49.4383 17.0749C48.7722 17.5291 47.9547 17.7562 46.9858 17.7562C46.6665 17.7562 46.3618 17.7313 46.0717 17.6816C45.5955 18.2583 45.1375 18.7806 44.7074 19.2373Z" fill="#0D6986"/>
<path d="M42.646 18.1014C42.4122 17.9002 42.1936 17.6792 41.9902 17.4383C41.4301 16.757 41.0062 15.9471 40.7186 15.0085C40.4309 14.0548 40.2871 12.9876 40.2871 11.8068C40.2871 10.081 40.5747 8.64285 41.15 7.49233C41.7253 6.32668 42.52 5.44865 43.5343 4.85825C44.5486 4.26785 45.6991 3.97266 46.9858 3.97266C48.0001 3.97266 48.916 4.14675 49.7335 4.49493C50.2704 4.72364 50.7552 5.0242 51.1876 5.39661C50.9432 5.97001 50.6287 6.62428 50.2525 7.33876C50.0069 7.02748 49.728 6.76076 49.4156 6.53861C48.7343 6.05418 47.9093 5.81197 46.9404 5.81197C46.017 5.81197 45.2147 6.04662 44.5334 6.5159C43.8522 6.98519 43.3299 7.66642 42.9666 8.55959C42.6033 9.45275 42.4216 10.5503 42.4216 11.8522C42.4216 12.7908 42.52 13.6309 42.7168 14.3727C42.9288 15.0994 43.224 15.72 43.6024 16.2348C43.7194 16.3832 43.8437 16.5209 43.9753 16.648C43.4965 17.2108 43.0489 17.6997 42.646 18.1014Z" fill="#0D6986"/>
<path d="M48.0833 11.03C48.0735 11.0212 48.0634 11.0126 48.053 11.0043C47.8108 10.8075 47.4475 10.7091 46.9631 10.7091C46.4938 10.7091 46.138 10.8075 45.8958 11.0043C45.6536 11.2011 45.5325 11.4963 45.5325 11.8899C45.5325 12.2835 45.6536 12.5787 45.8958 12.7755C46.0919 12.9347 46.3673 13.0296 46.722 13.0599C46.9623 12.7165 47.2041 12.3633 47.4463 12.0015C47.6652 11.6744 47.8777 11.3502 48.0833 11.03Z" fill="#0D6986"/>
<path fill-rule="evenodd" clip-rule="evenodd" d="M52.2911 3.71823C52.0413 3.85542 51.6997 4.11519 51.2769 4.50694L50.5052 3.67415C50.9537 3.25854 51.3748 2.92613 51.7446 2.72304C51.9287 2.62193 52.1285 2.53691 52.3321 2.50245C52.5391 2.46741 52.7977 2.47828 53.0313 2.63462C53.2879 2.80636 53.3931 3.07116 53.4324 3.2908C53.4716 3.50984 53.459 3.74935 53.4237 3.9842C53.3524 4.45728 53.1662 5.04817 52.9002 5.71133C52.1612 7.55411 50.7134 10.1813 48.8614 12.9488C46.8982 15.8824 44.9052 18.3396 43.4547 19.687C43.0035 20.1061 42.5801 20.4412 42.2086 20.6461C42.0237 20.7481 41.8232 20.8339 41.619 20.8689C41.4114 20.9044 41.1517 20.8942 40.9171 20.7372C40.5032 20.4602 40.4763 19.956 40.4968 19.6408C40.5208 19.2724 40.6311 18.8276 40.7954 18.3412L41.8711 18.7045C41.7296 19.1233 41.6551 19.4436 41.6337 19.6662C41.6423 19.6617 41.6512 19.6569 41.6603 19.6519C41.9122 19.5129 42.2564 19.2504 42.682 18.8551C44.0401 17.5935 45.9766 15.218 47.9178 12.3173C49.7465 9.58466 51.148 7.03042 51.8464 5.28873C52.1001 4.65614 52.249 4.15999 52.301 3.81507C52.307 3.77478 52.3115 3.73834 52.3146 3.70554C52.307 3.70958 52.2992 3.71381 52.2911 3.71823ZM41.6365 19.8941C41.6364 19.8943 41.6355 19.8923 41.6344 19.8875C41.6361 19.8916 41.6366 19.894 41.6365 19.8941Z" fill="#0D6986"/>
<path fill-rule="evenodd" clip-rule="evenodd" d="M5.14425 10.4426C4.02411 11.0106 3.0825 11.5795 2.37617 12.1306C1.88874 12.511 1.47165 12.9147 1.1924 13.3396C0.914562 13.7623 0.709994 14.3084 0.861607 14.898C1.08317 15.7596 1.90764 16.1753 2.61658 16.389C3.3886 16.6216 4.39565 16.7309 5.54771 16.748C8.85295 16.7973 13.7967 16.0903 19.1539 14.7127C19.5301 14.616 19.9028 14.5174 20.2715 14.4171C20.6352 14.3181 20.8933 13.9957 20.9103 13.6192L21.0593 10.3121L23.9135 15.1642C24.069 15.4286 24.3526 15.5911 24.6593 15.5917C24.966 15.5924 25.2502 15.4309 25.4068 15.1672L27.1838 12.1741C29.8106 11.1593 31.9766 10.0931 33.3834 9.09232C33.9814 8.66693 34.4877 8.22183 34.8293 7.76127C35.1627 7.3116 35.4358 6.70983 35.2664 6.05087C35.1298 5.5196 34.7547 5.15708 34.3582 4.92026C33.9649 4.68533 33.4803 4.52892 32.96 4.4221C32.2301 4.27227 31.333 4.20117 30.3115 4.19849C30.4074 4.45896 30.4893 4.7257 30.5566 4.99771L30.5569 4.99866C30.6338 5.31101 30.6924 5.62459 30.734 5.9388C31.4854 5.95719 32.1154 6.01949 32.6112 6.12127C33.0321 6.20769 33.3073 6.31302 33.4688 6.40945C33.5235 6.44214 33.5563 6.46813 33.5751 6.48567C33.5624 6.52582 33.528 6.60399 33.436 6.72802C33.2489 6.98027 32.9072 7.30236 32.378 7.67885C31.0979 8.58943 28.9856 9.6343 26.2837 10.6615C26.1004 10.7311 25.9462 10.8608 25.8461 11.0294L24.6645 13.0197L21.0721 6.91262C20.8774 6.58164 20.4882 6.41809 20.1156 6.51061C19.7429 6.60314 19.4754 6.92971 19.4581 7.31332L19.2061 12.9067C19.0454 12.9491 18.884 12.9911 18.7219 13.0328C13.4433 14.3902 8.66524 15.0597 5.57354 15.0136C4.48892 14.9975 3.66575 14.8935 3.11707 14.7282C2.73727 14.6137 2.59838 14.5059 2.55316 14.462C2.56362 14.43 2.58763 14.375 2.64191 14.2924C2.77494 14.09 3.02914 13.8213 3.44328 13.4982C3.9712 13.0862 4.69172 12.6371 5.58425 12.1676C5.46997 11.8594 5.37211 11.5434 5.29233 11.2193L5.2921 11.2184C5.22911 10.9614 5.17988 10.7024 5.14425 10.4426ZM33.5953 6.5073C33.5968 6.51005 33.5979 6.51133 33.5979 6.51133C33.5979 6.51133 33.5978 6.51098 33.5974 6.51033C33.597 6.50966 33.5963 6.50864 33.5953 6.5073ZM33.5822 6.45381C33.5822 6.45381 33.5821 6.45504 33.5822 6.4559C33.5824 6.45367 33.5823 6.4526 33.5823 6.4526C33.5823 6.4526 33.5822 6.45302 33.5822 6.45381Z" fill="#DAA4A4"/>
<path d="M16.9366 4.09723C17.7339 2.22503 19.407 0.821618 21.5808 0.286379C23.3117 -0.137729 25.1401 0.142056 26.6649 1.06435C28.1898 1.98665 29.2865 3.47614 29.7145 5.20604C29.9518 6.16966 29.9963 7.15528 29.8935 8.14146C29.3282 8.43076 28.6942 8.7288 27.997 9.03114C28.2561 7.87269 28.3005 6.71868 28.0302 5.62075C27.7125 4.3374 26.8987 3.23245 25.7674 2.5482C24.6362 1.86395 23.2797 1.65626 21.9955 1.97068C19.9481 2.47482 18.4968 3.98551 18.2109 5.91711C18.1855 6.0872 18.1101 6.24588 17.9943 6.37301C17.8785 6.50014 17.7275 6.58997 17.5605 6.63108C17.3935 6.6722 17.2181 6.66274 17.0565 6.60392C16.8949 6.5451 16.7544 6.43956 16.6529 6.30072C15.5037 4.72582 13.5161 4.0585 11.4687 4.56264C10.1853 4.8804 9.08035 5.69414 8.3961 6.82541C7.71185 7.95668 7.50416 9.31313 7.81858 10.5973C8.1183 11.8146 8.79136 12.9129 9.685 13.8935C8.95197 13.98 8.25899 14.0445 7.61263 14.087C6.92852 13.1541 6.4096 12.1302 6.13428 11.012C5.71017 9.28115 5.98996 7.45274 6.91225 5.9279C7.83455 4.40307 9.32404 3.30634 11.0539 2.87833C13.2277 2.34309 15.3612 2.80926 16.9366 4.09723Z" fill="#90BFBF"/>
<path d="M10.898 17.2373C15.1137 20.2728 20.5254 21.7008 20.869 21.787C21.0079 21.8227 21.1535 21.8235 21.2928 21.7892C21.432 21.7549 21.5606 21.6866 21.667 21.5905C21.9385 21.3483 26.2859 17.3719 28.5689 12.5554C28.3095 12.6622 28.0454 12.7683 27.7768 12.8738L26.1524 15.6099C25.8392 16.1373 25.2708 16.4602 24.6573 16.459C24.465 16.4586 24.2773 16.4263 24.1005 16.366C22.7534 18.0817 21.4485 19.4013 20.8481 19.9834C19.6742 19.6379 16.4342 18.5962 13.4582 16.8394C12.5755 16.9948 11.7197 17.1277 10.898 17.2373Z" fill="#90BFBF"/>
</g>
<defs>
<clipPath id="clip0_342_1638">
<rect width="90.9299" height="22" fill="white" transform="translate(0.535156)"/>
</clipPath>
</defs>
</svg>
