<svg width="91" height="22" viewBox="0 0 91 22" fill="none" xmlns="http://www.w3.org/2000/svg">
<g clip-path="url(#clip0_679_1523)">
<path d="M88.5445 19.4821C87.4545 19.4821 86.6446 19.1869 86.1148 18.5965C85.5849 18.0061 85.32 17.1054 85.32 15.8943V9.24096H83.5488L83.5715 7.51519H84.6842C85.0627 7.51519 85.3352 7.44706 85.5017 7.31082C85.6833 7.17457 85.7893 6.9475 85.8196 6.62959L86.0467 4.8584H87.3183V7.51519H90.7017V9.26367H87.3183V15.8489C87.3183 16.4544 87.4545 16.8934 87.727 17.1659C88.0147 17.4233 88.4234 17.5519 88.9532 17.5519C89.2409 17.5519 89.5361 17.5141 89.8388 17.4384C90.1567 17.3627 90.4671 17.2113 90.7698 16.9843V19.0506C90.3308 19.2172 89.9221 19.3307 89.5436 19.3913C89.1803 19.4518 88.8473 19.4821 88.5445 19.4821Z" fill="#4F898B"/>
<path d="M79.2339 19.2552V7.51538H81.3003V19.2552H79.2339ZM80.2785 5.4717C79.7941 5.4717 79.4307 5.3733 79.1885 5.1765C78.9463 4.9797 78.8252 4.6845 78.8252 4.2909C78.8252 3.8973 78.9463 3.6021 79.1885 3.40531C79.4307 3.20851 79.7865 3.11011 80.2558 3.11011C80.7402 3.11011 81.1035 3.20851 81.3457 3.40531C81.5879 3.6021 81.7091 3.8973 81.7091 4.2909C81.7091 4.66936 81.5879 4.96456 81.3457 5.1765C81.1035 5.3733 80.7478 5.4717 80.2785 5.4717Z" fill="#4F898B"/>
<path d="M71.4811 19.5504C70.7242 19.5504 70.0733 19.399 69.5283 19.0962C68.9984 18.7935 68.567 18.3847 68.234 17.87C67.916 17.3402 67.6738 16.7422 67.5073 16.0761H67.144L67.2575 19.2552H65.3955V13.4647V3.35986H67.4846V7.03849C67.4846 7.43209 67.4619 7.8484 67.4165 8.28741C67.3862 8.71128 67.3332 9.1503 67.2575 9.60445C67.197 10.0586 67.1289 10.4976 67.0532 10.9215H67.4619C67.6284 10.2857 67.8706 9.68771 68.1885 9.12759C68.5064 8.56747 68.9303 8.11332 69.4602 7.76513C70.0051 7.41695 70.6788 7.24286 71.4811 7.24286C72.4803 7.24286 73.328 7.50778 74.0244 8.03763C74.7359 8.55233 75.2809 9.2714 75.6593 10.1948C76.0378 11.1183 76.227 12.1931 76.227 13.4193C76.227 14.6001 76.0378 15.6522 75.6593 16.5757C75.296 17.4991 74.7586 18.2258 74.0471 18.7556C73.3507 19.2854 72.4954 19.5504 71.4811 19.5504ZM70.9816 17.7338C71.6325 17.7338 72.1851 17.5597 72.6392 17.2115C73.0934 16.8633 73.4416 16.3637 73.6838 15.7128C73.9411 15.0618 74.0698 14.3049 74.0698 13.442C74.0698 12.5943 73.9487 11.8449 73.7065 11.194C73.4643 10.5279 73.1161 10.0056 72.6619 9.62716C72.2078 9.23356 71.6477 9.03676 70.9816 9.03676C70.4971 9.03676 70.0657 9.13516 69.6872 9.33196C69.3088 9.51362 68.9757 9.7634 68.6881 10.0813C68.4156 10.3992 68.1885 10.7474 68.0069 11.1259C67.8252 11.5043 67.689 11.8828 67.5981 12.2612C67.5073 12.6397 67.4619 12.9879 67.4619 13.3058V13.5783C67.4619 14.0324 67.5376 14.5017 67.689 14.9861C67.8555 15.4706 68.0901 15.9247 68.3929 16.3486C68.6957 16.7573 69.0666 17.0904 69.5056 17.3477C69.9446 17.6051 70.4366 17.7338 70.9816 17.7338Z" fill="#4F898B"/>
<path d="M56.3262 19.255V12.8969V7.51517H58.1882L58.0065 11.6025H58.3926C58.5288 10.7094 58.7407 9.93731 59.0284 9.28636C59.316 8.63541 59.6945 8.12827 60.1638 7.76495C60.6482 7.40163 61.2461 7.21997 61.9577 7.21997C62.109 7.21997 62.2831 7.23511 62.4799 7.26539C62.6767 7.28052 62.9038 7.33351 63.1612 7.42434L63.0476 9.58156C62.8205 9.49073 62.5935 9.43018 62.3664 9.3999C62.1393 9.35448 61.9198 9.33178 61.7079 9.33178C61.1175 9.33178 60.6028 9.52101 60.1638 9.89947C59.7399 10.2779 59.3841 10.7926 59.0965 11.4436C58.8089 12.0794 58.5742 12.7985 58.3926 13.6008V19.255H56.3262Z" fill="#4F898B"/>
<path fill-rule="evenodd" clip-rule="evenodd" d="M41.2272 19.0529C41.1529 19.3132 41.1133 19.5164 41.0989 19.6663C41.1746 19.6262 41.2666 19.5702 41.3753 19.4943C41.5604 19.3652 41.7716 19.1946 42.0057 18.9843C42.3217 19.2165 42.6593 19.4201 43.018 19.5949C42.6591 19.9349 42.3251 20.2161 42.0249 20.4255C41.7737 20.6007 41.5172 20.7464 41.269 20.8239C41.0303 20.8984 40.6881 20.9419 40.3823 20.7372C40.0217 20.4959 39.9585 20.0802 39.9571 19.7991C39.9555 19.4894 40.0255 19.1267 40.1354 18.7413C40.238 18.3817 40.3842 17.9729 40.5687 17.5243C40.6648 17.6596 40.7654 17.7912 40.8705 17.919L40.8737 17.9229L40.8769 17.9266C41.0456 18.1265 41.2238 18.3144 41.4114 18.4902C41.3377 18.6934 41.2762 18.8813 41.2272 19.0529ZM41.1023 19.8971C41.1022 19.8973 41.1012 19.895 41.1 19.8895C41.1019 19.8942 41.1025 19.8969 41.1023 19.8971ZM40.8888 19.7507C40.8854 19.7513 40.8839 19.7513 40.8839 19.7512C40.884 19.7511 40.8857 19.7509 40.8888 19.7507Z" fill="#4F898B"/>
<path d="M42.5628 18.4524C42.8679 18.6657 43.195 18.8499 43.5443 19.0051C43.5597 19.0119 43.5752 19.0185 43.5907 19.0252C43.6581 18.9552 43.726 18.8837 43.7945 18.8106C44.1514 18.4301 44.5294 18.0018 44.9225 17.5324C44.7767 17.4856 44.6352 17.4316 44.498 17.3702C44.2781 17.2691 44.071 17.1494 43.8768 17.0111C43.5598 17.3838 43.2551 17.726 42.9663 18.034C42.8271 18.1824 42.6925 18.322 42.5628 18.4524Z" fill="#4F898B"/>
<path d="M44.3629 16.4274C45.3116 15.2651 46.3475 13.8646 47.383 12.3174C48.2375 11.0405 48.9995 9.80139 49.6402 8.66528C49.6763 8.74401 49.7111 8.82519 49.7446 8.90887L49.7462 8.91296C49.8947 9.27801 50.0116 9.68913 50.0938 10.1488C49.5621 11.0468 48.9688 11.9891 48.3266 12.9488C47.3493 14.4091 46.3663 15.749 45.4475 16.8922C45.2202 16.8398 45.0082 16.7689 44.8106 16.6808C44.6534 16.6083 44.5042 16.524 44.3629 16.4274Z" fill="#4F898B"/>
<path d="M50.6455 9.19387C50.5869 8.99712 50.5209 8.80841 50.4474 8.62775C50.3386 8.3559 50.2156 8.10303 50.0784 7.86915C50.4286 7.21642 50.7323 6.60674 50.9831 6.05438C51.0198 5.97354 51.0553 5.89415 51.0895 5.81624C51.157 5.88843 51.2231 5.96272 51.2876 6.03909C51.5004 6.28469 51.6956 6.54997 51.873 6.83492C51.5352 7.5526 51.1222 8.34732 50.6455 9.19387Z" fill="#4F898B"/>
<path fill-rule="evenodd" clip-rule="evenodd" d="M52.2377 6.02097C52.5211 5.35172 52.7273 4.7577 52.8348 4.27208C52.901 3.97305 52.9379 3.68034 52.9148 3.42135C52.8927 3.17226 52.8023 2.83934 52.4965 2.63468C52.1535 2.40518 51.7667 2.48565 51.5134 2.58122C51.2397 2.68451 50.9488 2.86779 50.6561 3.09096C50.3729 3.30683 50.0617 3.58051 49.7288 3.90353C50.0889 4.07376 50.4276 4.27429 50.7446 4.50472C50.9624 4.30296 51.1631 4.13208 51.3444 3.9939C51.5211 3.85919 51.6661 3.76587 51.7798 3.70556C51.7716 3.79087 51.7549 3.89722 51.7262 4.02667C51.6641 4.30745 51.5559 4.65299 51.4025 5.05611C51.563 5.21036 51.7164 5.37401 51.8627 5.54698C51.9941 5.69889 52.1191 5.85693 52.2377 6.02097ZM51.9949 3.62064C51.9948 3.62083 51.9922 3.62126 51.9876 3.62136C51.9927 3.6205 51.995 3.62045 51.9949 3.62064ZM51.7777 3.4791C51.7767 3.47621 51.7763 3.47457 51.7763 3.47447C51.7764 3.47438 51.7769 3.47583 51.7777 3.4791Z" fill="#4F898B"/>
<path d="M50.1947 5.04262C49.8854 4.82869 49.5534 4.64614 49.1985 4.49497C49.1861 4.48972 49.1738 4.48451 49.1614 4.47934C48.97 4.68155 48.7732 4.89676 48.5722 5.12365L49.4221 5.87653C49.6933 5.5704 49.9516 5.29184 50.1947 5.04262Z" fill="#4F898B"/>
<path d="M40.9306 16.698C41.0625 16.4127 41.2063 16.1158 41.3608 15.8093L42.3747 16.3203C42.1182 16.8292 41.8976 17.3003 41.7151 17.7267C41.6258 17.634 41.5392 17.5378 41.4552 17.4383C41.2645 17.2064 41.0897 16.9597 40.9306 16.698Z" fill="#4F898B"/>
<path d="M44.1723 19.2373C44.8503 19.4458 45.6022 19.5501 46.428 19.5501C47.5179 19.5501 48.4717 19.3684 49.2891 19.0051C50.1218 18.6418 50.8181 18.127 51.3782 17.461C51.9535 16.7797 52.3849 15.9698 52.6726 15.0312C52.9753 14.0775 53.1267 13.0178 53.1267 11.8522C53.1267 10.6108 52.9678 9.50574 52.6499 8.53688C52.5246 8.14901 52.3781 7.78467 52.2104 7.44384C51.8266 8.2306 51.364 9.09332 50.8366 10.0036C50.9403 10.5787 50.9922 11.2101 50.9922 11.8976C50.9922 13.139 50.8105 14.1986 50.4472 15.0767C50.099 15.9396 49.5843 16.6056 48.9031 17.0749C48.237 17.5291 47.4195 17.7562 46.4507 17.7562C46.1313 17.7562 45.8266 17.7313 45.5365 17.6816C45.0604 18.2583 44.6024 18.7806 44.1723 19.2373Z" fill="#4F898B"/>
<path d="M42.1109 18.1014C41.8771 17.9002 41.6585 17.6792 41.455 17.4383C40.8949 16.757 40.471 15.9471 40.1834 15.0085C39.8958 14.0548 39.752 12.9876 39.752 11.8068C39.752 10.081 40.0396 8.64285 40.6148 7.49233C41.1901 6.32668 41.9849 5.44865 42.9991 4.85825C44.0134 4.26785 45.1639 3.97266 46.4507 3.97266C47.465 3.97266 48.3808 4.14675 49.1983 4.49493C49.7353 4.72364 50.22 5.0242 50.6525 5.39661C50.4081 5.97001 50.0935 6.62428 49.7173 7.33876C49.4718 7.02748 49.1928 6.76076 48.8804 6.53861C48.1992 6.05418 47.3741 5.81197 46.4053 5.81197C45.4818 5.81197 44.6795 6.04662 43.9983 6.5159C43.317 6.9852 42.7948 7.66642 42.4314 8.55959C42.0681 9.45275 41.8865 10.5503 41.8865 11.8522C41.8865 12.7908 41.9849 13.6309 42.1817 14.3727C42.3936 15.0994 42.6888 15.72 43.0673 16.2348C43.1842 16.3832 43.3085 16.5209 43.4402 16.648C42.9613 17.2108 42.5138 17.6997 42.1109 18.1014Z" fill="#4F898B"/>
<path d="M47.5482 11.03C47.5383 11.0212 47.5282 11.0126 47.5179 11.0043C47.2757 10.8075 46.9123 10.7091 46.4279 10.7091C45.9586 10.7091 45.6029 10.8075 45.3607 11.0043C45.1185 11.2011 44.9973 11.4963 44.9973 11.8899C44.9973 12.2835 45.1185 12.5787 45.3607 12.7755C45.5567 12.9347 45.8321 13.0296 46.1868 13.0599C46.4272 12.7165 46.669 12.3633 46.9111 12.0015C47.13 11.6744 47.3425 11.3502 47.5482 11.03Z" fill="#4F898B"/>
<path fill-rule="evenodd" clip-rule="evenodd" d="M51.7564 3.71823C51.5066 3.85542 51.165 4.11519 50.7423 4.50694L49.9706 3.67415C50.4191 3.25854 50.8401 2.92613 51.2099 2.72304C51.3941 2.62193 51.5938 2.53691 51.7974 2.50245C52.0045 2.46741 52.263 2.47828 52.4966 2.63462C52.7533 2.80636 52.8584 3.07116 52.8977 3.2908C52.9369 3.50984 52.9244 3.74935 52.889 3.9842C52.8177 4.45728 52.6315 5.04818 52.3655 5.71133C51.6265 7.55411 50.1787 10.1813 48.3267 12.9488C46.3636 15.8824 44.3705 18.3396 42.92 19.687C42.4688 20.1061 42.0455 20.4412 41.6739 20.6461C41.489 20.7481 41.2885 20.8339 41.0843 20.8689C40.8768 20.9044 40.6171 20.8942 40.3824 20.7372C39.9686 20.4602 39.9416 19.956 39.9622 19.6408C39.9862 19.2724 40.0965 18.8276 40.2607 18.3412L41.3364 18.7045C41.195 19.1233 41.1205 19.4436 41.0991 19.6662C41.1077 19.6617 41.1165 19.6569 41.1256 19.6519C41.3776 19.5129 41.7217 19.2504 42.1473 18.8551C43.5054 17.5935 45.442 15.218 47.3831 12.3173C49.2118 9.58466 50.6133 7.03042 51.3118 5.28873C51.5654 4.65614 51.7143 4.15999 51.7663 3.81507C51.7724 3.77478 51.7768 3.73834 51.78 3.70554C51.7723 3.70958 51.7645 3.71381 51.7564 3.71823ZM41.1018 19.8941C41.1017 19.8943 41.1009 19.8923 41.0998 19.8875C41.1014 19.8916 41.102 19.894 41.1018 19.8941Z" fill="#4F898B"/>
<path fill-rule="evenodd" clip-rule="evenodd" d="M4.6086 10.4426C3.48847 11.0106 2.54686 11.5795 1.84052 12.1306C1.3531 12.511 0.93601 12.9147 0.656752 13.3396C0.378918 13.7623 0.17435 14.3084 0.325962 14.898C0.547525 15.7596 1.37199 16.1753 2.08093 16.389C2.85295 16.6216 3.86 16.7309 5.01207 16.748C8.31731 16.7973 13.261 16.0903 18.6182 14.7127C18.9945 14.616 19.3671 14.5174 19.7359 14.4171C20.0995 14.3181 20.3577 13.9957 20.3747 13.6192L20.5237 10.3121L23.3778 15.1642C23.5334 15.4286 23.8169 15.5911 24.1237 15.5917C24.4304 15.5924 24.7146 15.4309 24.8712 15.1672L26.6481 12.1741C29.275 11.1593 31.441 10.0931 32.8478 9.09232C33.4458 8.66693 33.9521 8.22183 34.2936 7.76127C34.6271 7.3116 34.9002 6.70983 34.7307 6.05087C34.5941 5.5196 34.2191 5.15708 33.8226 4.92026C33.4293 4.68533 32.9447 4.52892 32.4244 4.4221C31.6945 4.27227 30.7973 4.20117 29.7759 4.19849C29.8718 4.45896 29.9537 4.7257 30.021 4.99771L30.0212 4.99866C30.0981 5.31101 30.1567 5.62459 30.1983 5.9388C30.9498 5.95719 31.5798 6.01949 32.0755 6.12127C32.4965 6.20769 32.7717 6.31302 32.9331 6.40945C32.9878 6.44214 33.0206 6.46813 33.0395 6.48567C33.0268 6.52582 32.9923 6.60399 32.9003 6.72802C32.7133 6.98027 32.3716 7.30236 31.8423 7.67885C30.5622 8.58943 28.45 9.6343 25.7481 10.6615C25.5648 10.7311 25.4106 10.8608 25.3105 11.0294L24.1289 13.0197L20.5364 6.91262C20.3418 6.58164 19.9526 6.41809 19.5799 6.51061C19.2072 6.60314 18.9398 6.92971 18.9225 7.31332L18.6704 12.9067C18.5097 12.9491 18.3483 12.9911 18.1862 13.0328C12.9076 14.3902 8.1296 15.0597 5.0379 15.0136C3.95328 14.9975 3.13011 14.8935 2.58143 14.7282C2.20162 14.6137 2.06274 14.5059 2.01752 14.462C2.02798 14.43 2.05199 14.375 2.10627 14.2924C2.23929 14.09 2.49349 13.8213 2.90764 13.4982C3.43555 13.0862 4.15607 12.6371 5.04861 12.1676C4.93433 11.8594 4.83647 11.5434 4.75669 11.2193L4.75645 11.2184C4.69347 10.9614 4.64424 10.7024 4.6086 10.4426ZM33.0597 6.5073C33.0611 6.51005 33.0623 6.51133 33.0623 6.51133C33.0623 6.51133 33.0622 6.51098 33.0618 6.51033C33.0614 6.50966 33.0607 6.50864 33.0597 6.5073ZM33.0465 6.45381C33.0465 6.45381 33.0465 6.45504 33.0465 6.4559C33.0468 6.45367 33.0467 6.4526 33.0467 6.4526C33.0467 6.4526 33.0466 6.45302 33.0465 6.45381Z" fill="#DAA4A4"/>
<path d="M16.401 4.09723C17.1983 2.22503 18.8714 0.821618 21.0452 0.286379C22.776 -0.137729 24.6045 0.142056 26.1293 1.06435C27.6541 1.98665 28.7509 3.47614 29.1789 5.20604C29.4161 6.16966 29.4606 7.15528 29.3579 8.14146C28.7925 8.43076 28.1585 8.7288 27.4613 9.03114C27.7204 7.87269 27.7649 6.71868 27.4946 5.62075C27.1768 4.3374 26.3631 3.23245 25.2318 2.5482C24.1005 1.86395 22.7441 1.65626 21.4599 1.97068C19.4124 2.47482 17.9611 3.98551 17.6753 5.91711C17.6499 6.0872 17.5744 6.24588 17.4586 6.37301C17.3428 6.50014 17.1918 6.58997 17.0248 6.63108C16.8579 6.6722 16.6824 6.66274 16.5208 6.60392C16.3592 6.5451 16.2188 6.43956 16.1173 6.30072C14.9681 4.72582 12.9805 4.0585 10.933 4.56264C9.64966 4.8804 8.5447 5.69414 7.86045 6.82541C7.1762 7.95668 6.96852 9.31313 7.28294 10.5973C7.58266 11.8146 8.25572 12.9129 9.14935 13.8935C8.41632 13.98 7.72335 14.0445 7.07699 14.087C6.39288 13.1541 5.87395 12.1302 5.59864 11.012C5.17453 9.28115 5.45431 7.45274 6.37661 5.9279C7.29891 4.40307 8.78839 3.30634 10.5183 2.87833C12.6921 2.34309 14.8255 2.80926 16.401 4.09723Z" fill="#90BFBF"/>
<path d="M10.3624 17.2373C14.5781 20.2728 19.9897 21.7008 20.3334 21.787C20.4723 21.8227 20.6179 21.8235 20.7571 21.7892C20.8964 21.7549 21.0249 21.6866 21.1313 21.5905C21.4029 21.3483 25.7503 17.3719 28.0333 12.5554C27.7739 12.6622 27.5097 12.7683 27.2411 12.8738L25.6167 15.6099C25.3036 16.1373 24.7351 16.4602 24.1217 16.459C23.9294 16.4586 23.7416 16.4263 23.5649 16.366C22.2177 18.0817 20.9128 19.4013 20.3125 19.9834C19.1385 19.6379 15.8986 18.5962 12.9225 16.8394C12.0398 16.9948 11.1841 17.1277 10.3624 17.2373Z" fill="#90BFBF"/>
</g>
<defs>
<clipPath id="clip0_679_1523">
<rect width="90.9299" height="22" fill="white"/>
</clipPath>
</defs>
</svg>
