<svg width="291" height="114" viewBox="0 0 291 114" fill="none" xmlns="http://www.w3.org/2000/svg">
<path d="M251.466 78.3493C248.481 78.3493 246.263 77.5409 244.812 75.9242C243.361 74.3075 242.636 71.8409 242.636 68.5246V50.3053H237.786L237.848 45.5795H240.895C241.931 45.5795 242.677 45.3929 243.133 45.0198C243.631 44.6467 243.921 44.0249 244.004 43.1544L244.626 38.3042H248.108V45.5795H257.373V50.3675H248.108V68.4002C248.108 70.0584 248.481 71.2606 249.227 72.0068C250.015 72.7115 251.134 73.0638 252.585 73.0638C253.373 73.0638 254.181 72.9602 255.01 72.7529C255.881 72.5457 256.73 72.1311 257.56 71.5093V77.1678C256.357 77.6238 255.238 77.9348 254.202 78.1006C253.207 78.2664 252.295 78.3493 251.466 78.3493Z" fill="#0D6986"/>
<path d="M225.971 77.7274V45.5794H231.63V77.7274H225.971ZM228.831 39.983C227.505 39.983 226.51 39.7136 225.847 39.1747C225.183 38.6358 224.852 37.8274 224.852 36.7496C224.852 35.6717 225.183 34.8634 225.847 34.3245C226.51 33.7856 227.484 33.5161 228.769 33.5161C230.096 33.5161 231.091 33.7856 231.754 34.3245C232.417 34.8634 232.749 35.6717 232.749 36.7496C232.749 37.7859 232.417 38.5943 231.754 39.1747C231.091 39.7136 230.117 39.983 228.831 39.983Z" fill="#0D6986"/>
<path d="M204.742 78.5353C202.67 78.5353 200.887 78.1208 199.395 77.2917C197.944 76.4626 196.762 75.3433 195.85 73.9339C194.98 72.483 194.317 70.8455 193.861 69.0215H192.866L193.177 77.727H188.078V61.8706V34.1997H193.798V44.2732C193.798 45.351 193.736 46.491 193.612 47.6932C193.529 48.8539 193.384 50.0561 193.177 51.2997C193.011 52.5433 192.824 53.7455 192.617 54.9063H193.736C194.192 53.1652 194.855 51.5277 195.726 49.9939C196.597 48.4601 197.757 47.2164 199.208 46.263C200.701 45.3095 202.545 44.8328 204.742 44.8328C207.478 44.8328 209.8 45.5583 211.707 47.0092C213.655 48.4186 215.147 50.3877 216.184 52.9164C217.22 55.4452 217.738 58.3884 217.738 61.7463C217.738 64.9797 217.22 67.8608 216.184 70.3895C215.189 72.9183 213.717 74.9081 211.769 76.359C209.862 77.8099 207.52 78.5353 204.742 78.5353ZM203.374 73.5608C205.157 73.5608 206.67 73.0841 207.914 72.1306C209.157 71.1772 210.111 69.8092 210.774 68.0266C211.479 66.2441 211.831 64.1713 211.831 61.8084C211.831 59.487 211.499 57.435 210.836 55.6524C210.173 53.8284 209.219 52.3983 207.976 51.3619C206.732 50.2841 205.198 49.7452 203.374 49.7452C202.048 49.7452 200.866 50.0146 199.83 50.5535C198.794 51.051 197.882 51.735 197.094 52.6055C196.348 53.4761 195.726 54.4295 195.229 55.4659C194.731 56.5023 194.358 57.5386 194.109 58.575C193.861 59.6113 193.736 60.5648 193.736 61.4353V62.1815C193.736 63.4252 193.943 64.7103 194.358 66.0368C194.814 67.3633 195.457 68.607 196.286 69.7677C197.115 70.887 198.13 71.799 199.333 72.5037C200.535 73.2084 201.882 73.5608 203.374 73.5608Z" fill="#0D6986"/>
<path d="M163.241 77.7274V60.3165V45.5794H168.34L167.843 56.7721H168.9C169.273 54.3263 169.853 52.2121 170.641 50.4295C171.428 48.647 172.465 47.2583 173.75 46.2634C175.076 45.2684 176.714 44.771 178.662 44.771C179.077 44.771 179.554 44.8125 180.092 44.8954C180.631 44.9368 181.253 45.0819 181.958 45.3306L181.647 51.2379C181.025 50.9892 180.403 50.8234 179.782 50.7405C179.16 50.6161 178.559 50.5539 177.978 50.5539C176.362 50.5539 174.952 51.0721 173.75 52.1085C172.589 53.1448 171.615 54.5543 170.827 56.3368C170.04 58.0779 169.397 60.047 168.9 62.2441V77.7274H163.241Z" fill="#0D6986"/>
<path fill-rule="evenodd" clip-rule="evenodd" d="M121.895 77.1733C121.692 77.8863 121.583 78.4426 121.544 78.8532C121.751 78.7432 122.003 78.5899 122.3 78.3821C122.807 78.0285 123.386 77.5614 124.027 76.9856C124.892 77.6214 125.817 78.179 126.799 78.6577C125.816 79.5886 124.901 80.3586 124.079 80.932C123.392 81.4119 122.689 81.811 122.009 82.0231C121.356 82.2271 120.419 82.3461 119.581 81.7857C118.594 81.125 118.421 79.9865 118.417 79.2169C118.413 78.3687 118.604 77.3755 118.905 76.3203C119.186 75.3355 119.587 74.216 120.092 72.9876C120.355 73.358 120.63 73.7184 120.918 74.0684L120.927 74.0789L120.936 74.0893C121.398 74.6366 121.886 75.1511 122.399 75.6325C122.197 76.1889 122.029 76.7036 121.895 77.1733ZM121.553 79.4852C121.553 79.4858 121.55 79.4794 121.547 79.4644C121.552 79.4772 121.553 79.4847 121.553 79.4852ZM120.968 79.0844C120.959 79.0858 120.955 79.0859 120.955 79.0857C120.955 79.0854 120.96 79.0847 120.968 79.0844Z" fill="#0D6986"/>
<path d="M125.552 75.529C126.388 76.113 127.284 76.6175 128.24 77.0426C128.282 77.061 128.325 77.0793 128.367 77.0974C128.552 76.906 128.738 76.7101 128.925 76.5099C129.902 75.4679 130.938 74.2951 132.014 73.0096C131.615 72.8816 131.227 72.7336 130.852 72.5655C130.249 72.2888 129.682 71.9611 129.151 71.5822C128.283 72.6027 127.448 73.5399 126.657 74.3833C126.276 74.7897 125.908 75.1718 125.552 75.529Z" fill="#0D6986"/>
<path d="M130.482 69.9837C133.08 66.8011 135.916 62.9661 138.752 58.7291C141.092 55.2324 143.178 51.8393 144.933 48.7282C145.032 48.9438 145.127 49.1661 145.219 49.3953L145.223 49.4065C145.63 50.4061 145.95 51.5319 146.175 52.7906C144.719 55.2498 143.094 57.8301 141.336 60.4582C138.66 64.4571 135.968 68.1262 133.452 71.2565C132.829 71.1132 132.249 70.9191 131.708 70.6777C131.277 70.4793 130.869 70.2484 130.482 69.9837Z" fill="#0D6986"/>
<path d="M147.686 50.1757C147.525 49.6369 147.344 49.1202 147.143 48.6255C146.845 47.8811 146.509 47.1886 146.133 46.5481C147.092 44.7607 147.923 43.0912 148.61 41.5786C148.711 41.3573 148.808 41.1399 148.902 40.9265C149.087 41.1242 149.267 41.3276 149.444 41.5368C150.027 42.2093 150.561 42.9357 151.047 43.716C150.122 45.6813 148.991 47.8576 147.686 50.1757Z" fill="#0D6986"/>
<path fill-rule="evenodd" clip-rule="evenodd" d="M152.046 41.4871C152.822 39.6545 153.386 38.0278 153.681 36.698C153.862 35.8792 153.963 35.0776 153.9 34.3684C153.839 33.6863 153.592 32.7746 152.754 32.2142C151.815 31.5858 150.756 31.8061 150.062 32.0678C149.313 32.3507 148.516 32.8526 147.715 33.4637C146.939 34.0548 146.087 34.8043 145.175 35.6888C146.162 36.155 147.089 36.7041 147.957 37.3351C148.554 36.7826 149.103 36.3147 149.6 35.9363C150.083 35.5674 150.481 35.3118 150.792 35.1467C150.769 35.3803 150.724 35.6715 150.645 36.026C150.475 36.7949 150.179 37.7411 149.759 38.845C150.198 39.2674 150.618 39.7155 151.019 40.1892C151.379 40.6052 151.721 41.0379 152.046 41.4871ZM151.381 34.9142C151.381 34.9147 151.374 34.9159 151.361 34.9161C151.375 34.9138 151.381 34.9136 151.381 34.9142ZM150.786 34.5265C150.783 34.5186 150.782 34.5142 150.782 34.5139C150.783 34.5136 150.784 34.5176 150.786 34.5265Z" fill="#0D6986"/>
<path d="M146.451 38.8081C145.604 38.2222 144.695 37.7223 143.723 37.3084C143.689 37.294 143.656 37.2798 143.622 37.2656C143.097 37.8193 142.559 38.4086 142.008 39.0299L144.336 41.0916C145.078 40.2533 145.786 39.4905 146.451 38.8081Z" fill="#0D6986"/>
<path d="M121.083 70.7249C121.444 69.9436 121.838 69.1306 122.261 68.2911L125.037 69.6904C124.335 71.084 123.731 72.3742 123.231 73.5418C122.987 73.2878 122.749 73.0246 122.519 72.752C121.997 72.1172 121.518 71.4415 121.083 70.7249Z" fill="#0D6986"/>
<path d="M129.96 77.6786C131.817 78.2496 133.876 78.5351 136.137 78.5351C139.122 78.5351 141.734 78.0377 143.972 77.0428C146.252 76.0479 148.159 74.6384 149.693 72.8144C151.268 70.949 152.45 68.7311 153.237 66.161C154.066 63.5493 154.481 60.6475 154.481 57.4555C154.481 54.0562 154.046 51.0301 153.175 48.377C152.832 47.3148 152.431 46.3171 151.972 45.3838C150.92 47.5383 149.654 49.9007 148.21 52.3933C148.494 53.9683 148.636 55.6971 148.636 57.5799C148.636 60.9791 148.138 63.881 147.143 66.2853C146.19 68.6482 144.78 70.4722 142.915 71.7573C141.091 73.001 138.852 73.6228 136.199 73.6228C135.325 73.6228 134.49 73.5547 133.696 73.4186C132.392 74.9979 131.138 76.4281 129.96 77.6786Z" fill="#0D6986"/>
<path d="M124.315 74.5682C123.675 74.0173 123.076 73.412 122.519 72.7522C120.986 70.8868 119.825 68.669 119.037 66.0988C118.25 63.4871 117.856 60.5646 117.856 57.3311C117.856 52.6053 118.643 48.6671 120.219 45.5166C121.794 42.3246 123.97 39.9202 126.748 38.3035C129.525 36.6868 132.676 35.8784 136.199 35.8784C138.977 35.8784 141.485 36.3551 143.723 37.3086C145.194 37.9349 146.521 38.7579 147.705 39.7777C147.036 41.3479 146.175 43.1396 145.145 45.0961C144.472 44.2437 143.708 43.5133 142.853 42.905C140.987 41.5784 138.728 40.9151 136.075 40.9151C133.546 40.9151 131.349 41.5577 129.484 42.8428C127.618 44.1279 126.188 45.9933 125.193 48.4391C124.198 50.885 123.701 53.8904 123.701 57.4555C123.701 60.0257 123.97 62.3264 124.509 64.3577C125.09 66.3475 125.898 68.0471 126.934 69.4566C127.255 69.8631 127.595 70.2403 127.955 70.5882C126.644 72.1295 125.419 73.4682 124.315 74.5682Z" fill="#0D6986"/>
<path d="M139.205 55.2039C139.178 55.18 139.15 55.1565 139.122 55.1336C138.458 54.5947 137.464 54.3252 136.137 54.3252C134.852 54.3252 133.878 54.5947 133.214 55.1336C132.551 55.6725 132.22 56.4808 132.22 57.5587C132.22 58.6365 132.551 59.4448 133.214 59.9838C133.751 60.42 134.505 60.6796 135.477 60.7628C136.135 59.8223 136.797 58.8551 137.46 57.8643C138.06 56.9686 138.641 56.0809 139.205 55.2039Z" fill="#0D6986"/>
<path fill-rule="evenodd" clip-rule="evenodd" d="M150.728 35.1814C150.044 35.5571 149.108 36.2684 147.951 37.3411L145.837 35.0607C147.065 33.9226 148.218 33.0123 149.231 32.4562C149.735 32.1793 150.282 31.9465 150.84 31.8521C151.407 31.7562 152.115 31.7859 152.755 32.214C153.457 32.6843 153.745 33.4095 153.853 34.0109C153.96 34.6107 153.926 35.2666 153.829 35.9097C153.634 37.2052 153.124 38.8233 152.396 40.6392C150.372 45.6854 146.407 52.8797 141.336 60.4581C135.96 68.4913 130.502 75.2201 126.53 78.9097C125.295 80.0573 124.135 80.9751 123.118 81.5361C122.612 81.8155 122.063 82.0503 121.503 82.1462C120.935 82.2436 120.224 82.2155 119.581 81.7855C118.448 81.0271 118.374 79.6465 118.431 78.7832C118.496 77.7744 118.798 76.5564 119.248 75.2246L122.194 76.2192C121.806 77.3663 121.602 78.2433 121.544 78.853C121.567 78.8405 121.592 78.8274 121.617 78.8136C122.306 78.4332 123.249 77.7142 124.414 76.6317C128.133 73.1771 133.436 66.6721 138.752 58.7289C143.76 51.2458 147.597 44.2514 149.51 39.482C150.205 37.7497 150.612 36.3911 150.755 35.4466C150.771 35.3362 150.783 35.2365 150.792 35.1466C150.771 35.1577 150.75 35.1693 150.728 35.1814ZM121.551 79.4771C121.551 79.4775 121.549 79.4719 121.546 79.4589C121.55 79.4701 121.552 79.4766 121.551 79.4771Z" fill="#0D6986"/>
<path fill-rule="evenodd" clip-rule="evenodd" d="M21.6208 53.5952C18.5535 55.1508 15.975 56.7085 14.0408 58.2178C12.706 59.2593 11.5639 60.365 10.7992 61.5284C10.0384 62.6858 9.47818 64.1813 9.89336 65.7959C10.5001 68.1553 12.7578 69.2937 14.6991 69.8787C16.8132 70.5158 19.5709 70.815 22.7257 70.8619C31.7766 70.9967 45.3143 69.0609 59.9844 65.2885C61.0147 65.0235 62.0352 64.7535 63.0449 64.4788C64.0408 64.208 64.7477 63.325 64.7942 62.294L65.2023 53.238L73.018 66.5247C73.4438 67.2487 74.2204 67.6939 75.0603 67.6956C75.9002 67.6973 76.6785 67.2552 77.1073 66.533L81.9732 58.3369C89.1665 55.5579 95.0978 52.6381 98.9502 49.8977C100.588 48.7328 101.974 47.514 102.909 46.2528C103.823 45.0215 104.57 43.3736 104.106 41.5691C103.732 40.1143 102.705 39.1216 101.62 38.4731C100.543 37.8297 99.2156 37.4014 97.7907 37.1089C95.7921 36.6986 93.3353 36.5039 90.5382 36.4966C90.8007 37.2099 91.0251 37.9403 91.2094 38.6851L91.21 38.6877C91.4206 39.5431 91.5811 40.4018 91.6951 41.2622C93.7528 41.3126 95.4779 41.4832 96.8355 41.7619C97.9883 41.9985 98.7418 42.287 99.1839 42.551C99.3338 42.6405 99.4235 42.7117 99.4751 42.7597C99.4403 42.8697 99.346 43.0837 99.0941 43.4234C98.5819 44.1141 97.6462 44.9961 96.1969 46.0271C92.6915 48.5206 86.9074 51.3819 79.5085 54.1946C79.0067 54.3854 78.5843 54.7405 78.3102 55.2022L75.0745 60.6524L65.2372 43.9289C64.704 43.0226 63.6384 42.5747 62.6178 42.828C61.5973 43.0814 60.8648 43.9757 60.8175 45.0262L60.1273 60.3429C59.6873 60.4589 59.2453 60.574 58.8014 60.6881C44.3466 64.4052 31.2626 66.2385 22.7964 66.1125C19.8263 66.0682 17.5721 65.7835 16.0697 65.3307C15.0296 65.0173 14.6493 64.7222 14.5255 64.6019C14.5541 64.5144 14.6199 64.3635 14.7685 64.1374C15.1328 63.5832 15.8289 62.8475 16.9629 61.9626C18.4086 60.8345 20.3816 59.6047 22.8257 58.3189C22.5128 57.475 22.2448 56.6096 22.0263 55.7223L22.0257 55.7197C21.8532 55.0158 21.7184 54.3067 21.6208 53.5952ZM99.5305 42.819C99.5345 42.8265 99.5375 42.83 99.5375 42.83C99.5375 42.83 99.5373 42.8291 99.5362 42.8273C99.5351 42.8254 99.5333 42.8227 99.5305 42.819ZM99.4945 42.6725C99.4945 42.6725 99.4944 42.6759 99.4944 42.6782C99.4951 42.6721 99.4948 42.6692 99.4948 42.6692C99.4948 42.6692 99.4946 42.6703 99.4945 42.6725Z" fill="#DAA4A4"/>
<path d="M53.9133 36.2194C56.0966 31.0926 60.6782 27.2496 66.6309 25.7839C71.3706 24.6225 76.3775 25.3887 80.5531 27.9143C84.7286 30.4399 87.7319 34.5186 88.9039 39.2558C89.5537 41.8945 89.6755 44.5935 89.3941 47.294C87.8459 48.0862 86.1099 48.9024 84.2007 49.7303C84.9102 46.558 85.032 43.3979 84.2917 40.3914C83.4215 36.8771 81.1932 33.8513 78.0954 31.9776C74.9975 30.1039 71.2831 29.5351 67.7665 30.3961C62.1598 31.7766 58.1856 35.9135 57.4028 41.2029C57.3332 41.6687 57.1267 42.1032 56.8096 42.4514C56.4924 42.7995 56.079 43.0455 55.6217 43.158C55.1644 43.2706 54.684 43.2447 54.2415 43.0837C53.799 42.9226 53.4144 42.6336 53.1365 42.2534C49.9894 37.9407 44.5467 36.1134 38.94 37.4939C35.4257 38.364 32.3999 40.5923 30.5262 43.6902C28.6524 46.788 28.0837 50.5025 28.9447 54.019C29.7655 57.3524 31.6086 60.36 34.0557 63.0453C32.0484 63.2822 30.1507 63.4588 28.3808 63.5751C26.5074 61.0204 25.0864 58.2166 24.3325 55.1547C23.1711 50.4149 23.9373 45.4081 26.4629 41.2325C28.9885 37.0569 33.0672 34.0537 37.8043 32.8816C43.757 31.4159 49.5991 32.6925 53.9133 36.2194Z" fill="#90BFBF"/>
<path d="M37.3773 72.2018C48.9215 80.5142 63.7406 84.4247 64.6818 84.6605C65.0621 84.7584 65.4607 84.7606 65.842 84.6667C66.2234 84.5728 66.5755 84.3858 66.8668 84.1225C67.6103 83.4593 79.5151 72.5704 85.7669 59.3811C85.0566 59.6734 84.3332 59.9641 83.5977 60.2529L79.1495 67.7453C78.292 69.1897 76.7353 70.0738 75.0555 70.0704C74.5289 70.0694 74.0147 69.9811 73.5308 69.8159C69.8417 74.5141 66.2684 78.1277 64.6245 79.7216C61.4097 78.7756 52.5376 75.9231 44.388 71.1123C41.9709 71.5378 39.6275 71.9016 37.3773 72.2018Z" fill="#90BFBF"/>
</svg>
