<svg width="114" height="114" viewBox="0 0 114 114" fill="none" xmlns="http://www.w3.org/2000/svg">
<rect width="114" height="114" rx="57" fill="#90BFBF"/>
<path fill-rule="evenodd" clip-rule="evenodd" d="M25.8733 57.5761C23.3216 58.8701 21.1766 60.1659 19.5676 61.4214C18.4572 62.2879 17.5071 63.2077 16.871 64.1755C16.2381 65.1384 15.7721 66.3824 16.1174 67.7255C16.6221 69.6883 18.5003 70.6353 20.1152 71.122C21.8739 71.6519 24.168 71.9008 26.7924 71.9399C34.3217 72.052 45.5834 70.4416 57.7871 67.3034C58.6442 67.083 59.4932 66.8584 60.3331 66.6299C61.1616 66.4046 61.7496 65.67 61.7883 64.8124L62.1278 57.2789L68.6295 68.3319C68.9838 68.9341 69.6298 69.3044 70.3285 69.3058C71.0272 69.3073 71.6747 68.9395 72.0313 68.3387L76.0792 61.5206C82.0631 59.2088 86.9973 56.7799 90.202 54.5002C91.5643 53.5311 92.7176 52.5172 93.4956 51.4681C94.2553 50.4437 94.8774 49.0729 94.4914 47.5718C94.1802 46.3615 93.3258 45.5357 92.4226 44.9963C91.5267 44.4611 90.4228 44.1048 89.2375 43.8614C87.5748 43.5201 85.531 43.3582 83.2043 43.3521C83.4226 43.9454 83.6093 44.553 83.7626 45.1727L83.7631 45.1748C83.9383 45.8864 84.0718 46.6007 84.1666 47.3165C85.8784 47.3584 87.3135 47.5003 88.4428 47.7321C89.4018 47.929 90.0286 48.1689 90.3964 48.3886C90.5211 48.4631 90.5958 48.5223 90.6387 48.5622C90.6097 48.6537 90.5313 48.8318 90.3217 49.1143C89.8956 49.6889 89.1172 50.4227 87.9115 51.2803C84.9955 53.3546 80.1838 55.7348 74.0288 58.0747C73.6114 58.2334 73.26 58.5288 73.032 58.9128L70.3403 63.4468L62.1568 49.5348C61.7133 48.7809 60.8268 48.4083 59.9778 48.6191C59.1289 48.8298 58.5196 49.5738 58.4802 50.4476L57.906 63.1893C57.54 63.2858 57.1723 63.3816 56.803 63.4765C44.7784 66.5686 33.8941 68.0938 26.8512 67.9889C24.3804 67.9521 22.5053 67.7152 21.2554 67.3386C20.3902 67.0779 20.0738 66.8323 19.9708 66.7323C19.9946 66.6595 20.0493 66.534 20.173 66.3459C20.476 65.8849 21.055 65.2728 21.9985 64.5367C23.2011 63.5983 24.8424 62.5752 26.8756 61.5056C26.6153 60.8036 26.3923 60.0837 26.2106 59.3455L26.2101 59.3434C26.0666 58.7578 25.9544 58.1679 25.8733 57.5761ZM90.6847 48.6115C90.688 48.6178 90.6906 48.6207 90.6906 48.6207C90.6906 48.6207 90.6904 48.6199 90.6895 48.6184C90.6886 48.6169 90.687 48.6146 90.6847 48.6115ZM90.6548 48.4897C90.6548 48.4897 90.6547 48.4925 90.6547 48.4944C90.6553 48.4893 90.6551 48.4869 90.6551 48.4869C90.6551 48.4869 90.6548 48.4879 90.6548 48.4897Z" fill="#EBCACA"/>
<path d="M52.7366 43.1216C54.5529 38.8567 58.3642 35.6597 63.3161 34.4405C67.259 33.4744 71.4242 34.1117 74.8977 36.2127C78.3713 38.3137 80.8696 41.7067 81.8446 45.6474C82.3851 47.8426 82.4865 50.0878 82.2524 52.3343C80.9645 52.9933 79.5203 53.6723 77.9321 54.361C78.5223 51.7221 78.6236 49.0932 78.0078 46.5922C77.2839 43.6687 75.4302 41.1516 72.8532 39.5929C70.2762 38.0342 67.1862 37.5611 64.2608 38.2773C59.5967 39.4257 56.2907 42.8671 55.6395 47.2673C55.5816 47.6547 55.4098 48.0162 55.146 48.3058C54.8822 48.5954 54.5382 48.8 54.1578 48.8937C53.7774 48.9873 53.3778 48.9658 53.0097 48.8318C52.6416 48.6978 52.3216 48.4574 52.0904 48.1411C49.4725 44.5535 44.9448 43.0334 40.2806 44.1818C37.3572 44.9056 34.8401 46.7593 33.2814 49.3364C31.7227 51.9134 31.2495 55.0034 31.9658 57.9287C32.6486 60.7017 34.1818 63.2037 36.2175 65.4375C34.5476 65.6345 32.969 65.7814 31.4966 65.8782C29.9382 63.753 28.7561 61.4206 28.129 58.8734C27.1628 54.9305 27.8002 50.7654 29.9012 47.2918C32.0022 43.8183 35.3952 41.3199 39.3359 40.3449C44.2878 39.1257 49.1478 40.1876 52.7366 43.1216Z" fill="white"/>
<path d="M38.9807 73.0546C48.5841 79.9695 60.9118 83.2226 61.6947 83.4187C62.0111 83.5002 62.3427 83.502 62.6599 83.4239C62.9771 83.3458 63.27 83.1902 63.5124 82.9711C64.1309 82.4195 74.0343 73.3612 79.235 62.3893C78.6441 62.6325 78.0423 62.8743 77.4305 63.1145L73.7301 69.3473C73.0168 70.5489 71.7218 71.2844 70.3244 71.2815C69.8863 71.2807 69.4586 71.2073 69.056 71.0698C65.9872 74.9782 63.0146 77.9843 61.647 79.3101C58.9727 78.5232 51.5922 76.1502 44.8127 72.1482C42.802 72.5022 40.8526 72.8048 38.9807 73.0546Z" fill="white"/>
</svg>
